<svg xmlns="http://www.w3.org/2000/svg" xmlns:xlink="http://www.w3.org/1999/xlink" viewBox="0 0 4800 2700"><defs><style>.cls-1,.cls-9{fill:none;}.cls-2{fill:#262523;}.cls-3{isolation:isolate;}.cls-4{clip-path:url(#clip-path);}.cls-5,.cls-61,.cls-62{fill:#085788;}.cls-6{fill:#f6c01c;}.cls-7{fill:#f9960d;}.cls-8{fill:#c6c6c6;}.cls-9{stroke:#898989;stroke-miterlimit:10;stroke-width:4.01px;}.cls-10{fill:#898989;}.cls-11{fill:#0e0e10;}.cls-12{fill:#111112;}.cls-13{fill:#939393;}.cls-14{fill:#333335;}.cls-15{fill:#63636e;}.cls-16{fill:#dedede;}.cls-17{fill:#9190a1;}.cls-18{clip-path:url(#clip-path-2);}.cls-19{clip-path:url(#clip-path-3);}.cls-20{clip-path:url(#clip-path-4);}.cls-21{clip-path:url(#clip-path-5);}.cls-22{clip-path:url(#clip-path-6);}.cls-23{clip-path:url(#clip-path-7);}.cls-24{clip-path:url(#clip-path-8);}.cls-25{clip-path:url(#clip-path-9);}.cls-26{clip-path:url(#clip-path-10);}.cls-27{clip-path:url(#clip-path-11);}.cls-28{fill:#fafafa;}.cls-29{fill:#727272;}.cls-30{fill:#ba5007;}.cls-31,.cls-60,.cls-63,.cls-64{fill:#f1f1f1;}.cls-32{fill:#ebebeb;}.cls-33{fill:#777;}.cls-34{clip-path:url(#clip-path-12);}.cls-35{clip-path:url(#clip-path-13);}.cls-36{clip-path:url(#clip-path-14);}.cls-37{clip-path:url(#clip-path-15);}.cls-38{clip-path:url(#clip-path-16);}.cls-39{fill:#ececec;}.cls-40{fill:#b6b6bd;}.cls-41,.cls-68{fill:#fff;}.cls-41{opacity:0.67;}.cls-42{fill:#ffe590;}.cls-43{fill:#ffcf4d;}.cls-44{opacity:0.19;mix-blend-mode:multiply;}.cls-45{fill:#807151;}.cls-46{fill:#d0ad7f;}.cls-47{fill:#bb9c73;}.cls-48{fill:#d6b580;}.cls-49,.cls-55{fill:#cea47d;}.cls-49,.cls-50,.cls-51,.cls-52,.cls-53,.cls-54{opacity:0.77;}.cls-50{fill:#d1b893;}.cls-51{fill:#cfaa80;}.cls-52{fill:#c3946d;}.cls-53{fill:#c7a076;}.cls-54,.cls-56{fill:#b18667;}.cls-57{fill:#1a9cf1;}.cls-58{fill:#7fcffa;}.cls-59{fill:#0d7fc6;}.cls-60{font-size:45.51px;}.cls-60,.cls-62,.cls-64{font-family:OpenSans-Bold, Open Sans;font-weight:700;}.cls-61,.cls-63{font-size:30.37px;font-family:OpenSans-SemiBold, Open Sans;font-weight:600;}.cls-62{font-size:75.27px;}.cls-64{font-size:141.49px;}.cls-65{fill:#0c4156;}.cls-66{fill:#f79877;}.cls-67{fill:#703e03;}.cls-69{fill:#0f4b6a;}.cls-70{fill:#39baf9;}</style><clipPath id="clip-path"><rect class="cls-1" width="4800" height="2700"/></clipPath><clipPath id="clip-path-2"><path id="SVGID" class="cls-2" d="M2454,4l34.22,19.89c3.14,1.82,7.48,1.57,12.26-1.19L2466.27,2.77C2461.5,5.53,2457.15,5.78,2454,4Z"/></clipPath><clipPath id="clip-path-3"><path id="SVGID-2" data-name="SVGID" class="cls-2" d="M2444.55,20.28l34.22,19.89c-5.49-3.19-8.91-10-8.94-19.61L2435.61.67C2435.64,10.3,2439.05,17.09,2444.55,20.28Z"/></clipPath><clipPath id="clip-path-4"><path id="SVGID-3" data-name="SVGID" class="cls-2" d="M2395.41,70.92l.11,39.59c0-3.63,2.38-7.26,7.15-10l-.11-39.58C2397.79,63.67,2395.4,67.3,2395.41,70.92Z"/></clipPath><clipPath id="clip-path-5"><path id="SVGID-4" data-name="SVGID" class="cls-2" d="M2376.54,71l.11,39.59c0,6.35,4.19,12.7,12.51,17.54l-.11-39.59C2380.72,83.7,2376.56,77.35,2376.54,71Z"/></clipPath><clipPath id="clip-path-6"><path id="SVGID-5" data-name="SVGID" class="cls-2" d="M2547.25,180.47l.11,39.58c16.77,9.75,44.17,9.75,61,0l-.11-39.58C2591.42,190.21,2564,190.21,2547.25,180.47Z"/></clipPath><clipPath id="clip-path-7"><path id="SVGID-6" data-name="SVGID" class="cls-2" d="M2395.41,335l.11,39.58c0-3.63,2.38-7.26,7.15-10l-.11-39.59C2397.79,327.74,2395.4,331.37,2395.41,335Z"/></clipPath><clipPath id="clip-path-8"><path id="SVGID-7" data-name="SVGID" class="cls-2" d="M2376.54,335.07l.11,39.58c0,6.36,4.19,12.7,12.51,17.54l-.11-39.58C2380.72,347.77,2376.56,341.42,2376.54,335.07Z"/></clipPath><clipPath id="clip-path-9"><path id="SVGID-8" data-name="SVGID" class="cls-2" d="M2547.25,444.54l.11,39.59c16.77,9.74,44.17,9.74,61,0l-.11-39.58C2591.42,454.29,2564,454.29,2547.25,444.54Z"/></clipPath><clipPath id="clip-path-10"><path id="SVGID-9" data-name="SVGID" class="cls-2" d="M2522.21,43.25l34.22,19.89c3.14,1.82,7.48,1.57,12.26-1.19l-34.23-19.89C2529.68,44.82,2525.34,45.07,2522.21,43.25Z"/></clipPath><clipPath id="clip-path-11"><path id="SVGID-10" data-name="SVGID" class="cls-2" d="M2512.74,59.57,2547,79.46c-5.5-3.19-8.91-10-8.94-19.61L2503.8,40C2503.83,49.59,2507.24,56.38,2512.74,59.57Z"/></clipPath><clipPath id="clip-path-12"><path id="SVGID-11" data-name="SVGID" class="cls-2" d="M3356.71,592.67l-7.86,4.41c4-2.26,9.55-1.85,15.6,1.77l7.86-4.41C3366.27,590.82,3360.74,590.41,3356.71,592.67Z"/></clipPath><clipPath id="clip-path-13"><path id="SVGID-12" data-name="SVGID" class="cls-2" d="M3379.15,651.12l7.87-4.41c4-2.24,6.5-7.08,6.62-14,.26-13.93-9.29-31.06-21.33-38.26l-7.86,4.41c12,7.2,21.58,24.33,21.33,38.26C3385.65,644,3383.13,648.88,3379.15,651.12Z"/></clipPath><clipPath id="clip-path-14"><path id="SVGID-13" data-name="SVGID" d="M3359.14,644.31l7.86-4.41a3.2,3.2,0,0,0,1.39-2.93l-7.86,4.41A3.24,3.24,0,0,1,3359.14,644.31Z"/></clipPath><clipPath id="clip-path-15"><path id="SVGID-14" data-name="SVGID" d="M3361.11,605.74l-7.86,4.41a3.26,3.26,0,0,1,3.26.37l7.87-4.41A3.27,3.27,0,0,0,3361.11,605.74Z"/></clipPath><clipPath id="clip-path-16"><path id="SVGID-15" data-name="SVGID" d="M3360.94,618.47l7.87-4.41a10,10,0,0,0-4.43-7.95l-7.87,4.41A10,10,0,0,1,3360.94,618.47Z"/></clipPath></defs><g class="cls-3"><g id="Layer_7" data-name="Layer 7"><g class="cls-4"><rect class="cls-5" width="4800" height="2700"/><g class="cls-3"><polygon class="cls-6" points="548.27 1461.97 418.81 1386.74 414.62 -91 544.09 -15.76 548.27 1461.97"/><polygon class="cls-7" points="2432.22 -1105.87 2436.4 371.86 548.27 1461.97 544.09 -15.76 2432.22 -1105.87"/></g><polygon class="cls-8" points="4787.38 1497.77 2630.33 252.4 -884.79 2281.59 1272.26 3526.96 4787.38 1497.77"/><line class="cls-9" x1="1496.92" y1="898.4" x2="3653.96" y2="2143.77"/><line class="cls-9" x1="628.33" y1="1407.89" x2="2785.38" y2="2653.26"/><line class="cls-9" x1="-240.25" y1="1917.38" x2="1916.79" y2="3162.75"/><line class="cls-9" x1="134.19" y1="2877.02" x2="3258.89" y2="1063.42"/><ellipse class="cls-10" cx="641.39" cy="1443.01" rx="7.84" ry="4.53" transform="translate(-9.07 4.06) rotate(-0.36)"/><ellipse class="cls-10" cx="689.99" cy="1415.9" rx="7.84" ry="4.53" transform="translate(-8.89 4.37) rotate(-0.36)"/><ellipse class="cls-10" cx="864.93" cy="1567.82" rx="7.84" ry="4.53" transform="translate(-9.85 5.47) rotate(-0.36)"/><ellipse class="cls-10" cx="1150.82" cy="1737.51" rx="7.84" ry="4.53" transform="translate(-10.91 7.27) rotate(-0.36)"/><ellipse class="cls-10" cx="1203.16" cy="1700.7" rx="7.84" ry="4.53" transform="translate(-10.68 7.6) rotate(-0.36)"/><ellipse class="cls-10" cx="1501.9" cy="1884.85" rx="7.84" ry="4.53" transform="translate(-11.83 9.49) rotate(-0.36)"/><ellipse class="cls-10" cx="1484.91" cy="1924.87" rx="7.84" ry="4.53" transform="translate(-12.08 9.38) rotate(-0.36)"/><ellipse class="cls-10" cx="924.27" cy="1544.29" rx="7.84" ry="4.53" transform="translate(-9.7 5.85) rotate(-0.36)"/><ellipse class="cls-10" cx="7.6" cy="2085.49" rx="7.84" ry="4.53" transform="translate(-13.12 0.09) rotate(-0.36)"/><ellipse class="cls-10" cx="293.49" cy="2255.18" rx="7.84" ry="4.53" transform="translate(-14.18 1.89) rotate(-0.36)"/><ellipse class="cls-10" cx="345.83" cy="2218.37" rx="7.84" ry="4.53" transform="translate(-13.95 2.22) rotate(-0.36)"/><ellipse class="cls-10" cx="644.57" cy="2402.53" rx="7.84" ry="4.53" transform="translate(-15.1 4.1) rotate(-0.36)"/><ellipse class="cls-10" cx="627.58" cy="2442.55" rx="7.84" ry="4.53" transform="translate(-15.36 4) rotate(-0.36)"/><ellipse class="cls-10" cx="66.94" cy="2061.96" rx="7.84" ry="4.53" transform="translate(-12.97 0.46) rotate(-0.36)"/><ellipse class="cls-10" cx="1684.92" cy="2053.78" rx="7.84" ry="4.53" transform="translate(-12.89 10.64) rotate(-0.36)"/><ellipse class="cls-10" cx="1733.52" cy="2026.67" rx="7.84" ry="4.53" transform="translate(-12.72 10.95) rotate(-0.36)"/><ellipse class="cls-10" cx="1908.46" cy="2178.59" rx="7.84" ry="4.53" transform="translate(-13.67 12.05) rotate(-0.36)"/><ellipse class="cls-10" cx="2194.35" cy="2348.28" rx="7.84" ry="4.53" transform="translate(-14.73 13.85) rotate(-0.36)"/><ellipse class="cls-10" cx="2246.69" cy="2311.47" rx="7.84" ry="4.53" transform="translate(-14.5 14.18) rotate(-0.36)"/><ellipse class="cls-10" cx="2545.43" cy="2495.63" rx="7.84" ry="4.53" transform="translate(-15.65 16.06) rotate(-0.36)"/><ellipse class="cls-10" cx="2528.44" cy="2535.65" rx="7.84" ry="4.53" transform="translate(-15.9 15.96) rotate(-0.36)"/><ellipse class="cls-10" cx="1967.8" cy="2155.06" rx="7.84" ry="4.53" transform="translate(-13.52 12.42) rotate(-0.36)"/><ellipse class="cls-10" cx="891.6" cy="2610.47" rx="7.84" ry="4.53" transform="translate(-16.41 5.66) rotate(-0.36)"/><ellipse class="cls-10" cx="940.19" cy="2583.36" rx="7.84" ry="4.53" transform="translate(-16.23 5.97) rotate(-0.36)"/><ellipse class="cls-10" cx="2593.37" cy="1561.95" rx="7.84" ry="4.53" transform="translate(-9.78 16.35) rotate(-0.36)"/><ellipse class="cls-10" cx="2641.97" cy="1534.83" rx="7.84" ry="4.53" transform="translate(-9.6 16.65) rotate(-0.36)"/><ellipse class="cls-10" cx="2816.91" cy="1686.76" rx="7.84" ry="4.53" transform="translate(-10.56 17.76) rotate(-0.36)"/><ellipse class="cls-10" cx="3102.8" cy="1856.45" rx="7.84" ry="4.53" transform="translate(-11.62 19.56) rotate(-0.36)"/><ellipse class="cls-10" cx="3155.14" cy="1819.64" rx="7.84" ry="4.53" transform="translate(-11.39 19.89) rotate(-0.36)"/><ellipse class="cls-10" cx="3453.87" cy="2003.79" rx="7.84" ry="4.53" transform="translate(-12.54 21.77) rotate(-0.36)"/><ellipse class="cls-10" cx="3436.89" cy="2043.81" rx="7.84" ry="4.53" transform="translate(-12.79 21.66) rotate(-0.36)"/><ellipse class="cls-10" cx="2876.25" cy="1663.23" rx="7.84" ry="4.53" transform="translate(-10.41 18.13) rotate(-0.36)"/><ellipse class="cls-10" cx="1563.59" cy="965.35" rx="7.84" ry="4.53" transform="translate(-6.04 9.86) rotate(-0.36)"/><ellipse class="cls-10" cx="1612.18" cy="938.24" rx="7.84" ry="4.53" transform="translate(-5.87 10.16) rotate(-0.36)"/><ellipse class="cls-10" cx="1787.13" cy="1090.17" rx="7.84" ry="4.53" transform="translate(-6.82 11.27) rotate(-0.36)"/><ellipse class="cls-10" cx="2073.01" cy="1259.85" rx="7.84" ry="4.53" transform="matrix(1, -0.01, 0.01, 1, -7.89, 13.07)"/><ellipse class="cls-10" cx="2125.36" cy="1223.05" rx="7.84" ry="4.53" transform="translate(-7.65 13.4) rotate(-0.36)"/><ellipse class="cls-10" cx="2424.09" cy="1407.2" rx="7.84" ry="4.53" transform="translate(-8.81 15.28) rotate(-0.36)"/><ellipse class="cls-10" cx="2407.11" cy="1447.22" rx="7.84" ry="4.53" transform="translate(-9.06 15.17) rotate(-0.36)"/><ellipse class="cls-10" cx="1846.47" cy="1066.64" rx="7.84" ry="4.53" transform="translate(-6.67 11.64) rotate(-0.36)"/><ellipse class="cls-10" cx="2384.25" cy="1606.55" rx="4.53" ry="7.84" transform="translate(762.73 3980.65) rotate(-89.64)"/><ellipse class="cls-10" cx="2335.66" cy="1579.44" rx="4.53" ry="7.84" transform="translate(741.55 3905.12) rotate(-89.64)"/><ellipse class="cls-10" cx="2160.71" cy="1731.37" rx="4.53" ry="7.84" transform="translate(415.78 3881.15) rotate(-89.64)"/><ellipse class="cls-10" cx="1874.83" cy="1901.06" rx="4.53" ry="7.84" transform="translate(-37.98 3763.89) rotate(-89.64)"/><ellipse class="cls-10" cx="1822.49" cy="1864.25" rx="4.53" ry="7.84" transform="translate(-53.19 3674.97) rotate(-89.64)"/><ellipse class="cls-10" cx="1523.75" cy="2048.4" rx="4.53" ry="7.84" transform="translate(-534.2 3559.23) rotate(-89.64)"/><ellipse class="cls-10" cx="1540.73" cy="2088.42" rx="4.53" ry="7.84" transform="translate(-557.34 3615.98) rotate(-89.64)"/><ellipse class="cls-10" cx="2101.38" cy="1707.84" rx="4.53" ry="7.84" transform="translate(380.35 3798.43) rotate(-89.64)"/><ellipse class="cls-10" cx="3482.52" cy="966.11" rx="4.53" ry="7.84" transform="translate(2494.52 4442.49) rotate(-89.64)"/><ellipse class="cls-10" cx="3433.92" cy="939" rx="4.53" ry="7.84" transform="matrix(0.01, -1, 1, 0.01, 2473.34, 4366.95)"/><ellipse class="cls-10" cx="3258.98" cy="1090.93" rx="4.53" ry="7.84" transform="translate(2147.57 4342.98) rotate(-89.64)"/><ellipse class="cls-10" cx="2973.09" cy="1260.61" rx="4.53" ry="7.84" transform="translate(1693.8 4225.72) rotate(-89.64)"/><ellipse class="cls-10" cx="2920.75" cy="1223.81" rx="4.53" ry="7.84" transform="translate(1678.59 4136.8) rotate(-89.64)"/><ellipse class="cls-10" cx="2622.02" cy="1407.96" rx="4.53" ry="7.84" transform="translate(1197.59 4021.06) rotate(-89.64)"/><ellipse class="cls-10" cx="2639" cy="1447.98" rx="4.53" ry="7.84" transform="translate(1174.45 4077.82) rotate(-89.64)"/><ellipse class="cls-10" cx="3199.64" cy="1067.4" rx="4.53" ry="7.84" transform="translate(2112.13 4260.26) rotate(-89.64)"/><ellipse class="cls-10" cx="1339" cy="2204.46" rx="4.53" ry="7.84" transform="translate(-873.84 3529.56) rotate(-89.64)"/><ellipse class="cls-10" cx="1290.41" cy="2177.35" rx="4.53" ry="7.84" transform="translate(-895.02 3454.03) rotate(-89.64)"/><ellipse class="cls-10" cx="1115.46" cy="2329.27" rx="4.53" ry="7.84" transform="translate(-1220.78 3430.05) rotate(-89.64)"/><ellipse class="cls-10" cx="829.57" cy="2498.96" rx="4.53" ry="7.84" transform="translate(-1674.55 3312.79) rotate(-89.64)"/><ellipse class="cls-10" cx="777.23" cy="2462.15" rx="4.53" ry="7.84" transform="translate(-1689.76 3223.88) rotate(-89.64)"/><ellipse class="cls-10" cx="478.5" cy="2646.3" rx="4.53" ry="7.84" transform="translate(-2170.77 3108.14) rotate(-89.64)"/><ellipse class="cls-10" cx="495.48" cy="2686.32" rx="4.53" ry="7.84" transform="translate(-2193.91 3164.89) rotate(-89.64)"/><ellipse class="cls-10" cx="1056.12" cy="2305.74" rx="4.53" ry="7.84" transform="translate(-1256.22 3347.34) rotate(-89.64)"/><g id="fridge"><g id="fridge-2" data-name="fridge"><g class="cls-3"><polygon class="cls-2" points="3023.51 601.53 3023.56 620.68 3050.86 636.54 3050.8 617.39 3023.51 601.53"/><polygon class="cls-11" points="3050.8 617.39 3050.86 636.54 3087.93 615.02 3087.88 595.87 3050.8 617.39"/><polygon class="cls-12" points="3023.51 601.53 3050.8 617.39 3087.88 595.87 3060.59 580.01 3023.51 601.53"/></g><g class="cls-3"><polygon class="cls-2" points="2782.91 741.33 2782.96 760.48 2810.25 776.34 2810.2 757.19 2782.91 741.33"/><polygon class="cls-11" points="2810.2 757.19 2810.25 776.34 2847.33 754.81 2847.28 735.67 2810.2 757.19"/><polygon class="cls-12" points="2782.91 741.33 2810.2 757.19 2847.28 735.67 2819.98 719.8 2782.91 741.33"/></g><g class="cls-3"><polygon class="cls-13" points="2810.28 757.22 3115.55 579.6 3119.12 -732.35 2813.84 -554.73 2810.28 757.22"/><polygon class="cls-14" points="2286.27 -859.32 2282.7 452.62 2810.28 757.22 2813.84 -554.73 2286.27 -859.32"/></g><g class="cls-3"><polygon class="cls-13" points="2771.95 777.95 2806.18 758.06 2806.81 508.23 2772.59 528.12 2771.95 777.95"/><polygon class="cls-15" points="2772.59 528.12 2806.81 508.23 2279.23 203.64 2245.01 223.53 2772.59 528.12"/><polygon class="cls-16" points="2245.01 223.53 2244.38 473.35 2771.95 777.95 2772.59 528.12 2245.01 223.53"/></g><g class="cls-3"><polygon class="cls-13" points="2771.95 514.93 2806.18 495.04 2806.81 245.21 2772.59 265.1 2771.95 514.93"/><polygon class="cls-15" points="2772.59 265.1 2806.81 245.21 2279.23 -59.38 2245.01 -39.5 2772.59 265.1"/><polygon class="cls-16" points="2245.01 -39.5 2244.38 210.33 2771.95 514.93 2772.59 265.1 2245.01 -39.5"/></g><g class="cls-3"><polygon class="cls-17" points="2501.78 96.25 2536.01 76.36 2538.22 -706.39 2504 -686.5 2501.78 96.25"/><polygon class="cls-16" points="2244.99 -836.04 2242.77 -53.29 2501.78 96.25 2504 -686.5 2244.99 -836.04"/></g><g class="cls-3"><polygon class="cls-13" points="2770.37 251.31 2804.59 231.43 2806.81 -551.32 2772.59 -531.43 2770.37 251.31"/><polygon class="cls-16" points="2513.58 -680.97 2511.36 101.78 2770.37 251.31 2772.59 -531.43 2513.58 -680.97"/></g><g class="cls-3"><path id="SVGID-16" data-name="SVGID" class="cls-2" d="M2454,4l34.22,19.89c3.14,1.82,7.48,1.57,12.26-1.19L2466.27,2.77C2461.5,5.53,2457.15,5.78,2454,4Z"/><g class="cls-18"><g class="cls-3"><path class="cls-2" d="M2500.5,22.66,2466.27,2.77c-4.77,2.76-9.12,3-12.25,1.19l34.22,19.89c3.14,1.82,7.48,1.57,12.26-1.19Z"/></g></g><path id="SVGID-17" data-name="SVGID" class="cls-2" d="M2444.55,20.28l34.22,19.89c-5.49-3.19-8.91-10-8.94-19.61L2435.61.67C2435.64,10.3,2439.05,17.09,2444.55,20.28Z"/><g class="cls-19"><g class="cls-3"><path class="cls-2" d="M2469.83,20.56,2435.61.67a33.19,33.19,0,0,0,1,8.19l34.23,19.89a33.17,33.17,0,0,1-1-8.19Z"/><path class="cls-2" d="M2470.82,28.75,2436.59,8.86a20.14,20.14,0,0,0,4.31,8.44l34.23,19.89a20,20,0,0,1-4.31-8.44Z"/><path class="cls-2" d="M2475.13,37.19,2440.9,17.3a15,15,0,0,0,3.65,3l34.22,19.89a15,15,0,0,1-3.64-3Z"/></g></g><polygon class="cls-2" points="2468.2 -558.62 2433.97 -578.51 2435.61 0.67 2469.84 20.56 2468.2 -558.62"/><path class="cls-2" d="M2498.7-611.46c-16.88,9.75-30.56,33.45-30.5,52.84l1.63,579.18c.06,19.39,13.83,27.24,30.71,17.49l0-15.39c-9.49,5.48-17.25,1.07-17.28-9.83l-1.64-579.17c0-10.91,7.67-24.24,17.16-29.72Z"/></g><g class="cls-3"><path id="SVGID-18" data-name="SVGID" class="cls-2" d="M2395.41,70.92l.11,39.59c0-3.63,2.38-7.26,7.15-10l-.11-39.58C2397.79,63.67,2395.4,67.3,2395.41,70.92Z"/><g class="cls-20"><g class="cls-3"><path class="cls-2" d="M2395.41,70.92l.11,39.59c0-3.63,2.38-7.26,7.15-10l-.11-39.58c-4.77,2.76-7.16,6.39-7.15,10Z"/></g></g><path id="SVGID-19" data-name="SVGID" class="cls-2" d="M2376.54,71l.11,39.59c0,6.35,4.19,12.7,12.51,17.54l-.11-39.59C2380.72,83.7,2376.56,77.35,2376.54,71Z"/><g class="cls-21"><g class="cls-3"><path class="cls-2" d="M2376.54,71l.11,39.59a16.17,16.17,0,0,0,2.84,8.89l-.11-39.58a16.12,16.12,0,0,1-2.84-8.9Z"/><path class="cls-2" d="M2379.38,79.89l.11,39.58a28.43,28.43,0,0,0,9.67,8.65l-.11-39.59a28.41,28.41,0,0,1-9.67-8.64Z"/></g></g><polygon class="cls-2" points="2389.05 88.53 2389.16 128.12 2547.36 220.05 2547.25 180.47 2389.05 88.53"/><path id="SVGID-20" data-name="SVGID" class="cls-2" d="M2547.25,180.47l.11,39.58c16.77,9.75,44.17,9.75,61,0l-.11-39.58C2591.42,190.21,2564,190.21,2547.25,180.47Z"/><g class="cls-22"><g class="cls-3"><path class="cls-2" d="M2547.25,180.47l.11,39.58a57.71,57.71,0,0,0,22.75,6.91l-.11-39.58c-8.35-.88-16.33-3.18-22.75-6.91Z"/><path class="cls-2" d="M2570,187.38l.11,39.58a74.48,74.48,0,0,0,17.08-.19l-.12-39.58a75,75,0,0,1-17.07.19Z"/><path class="cls-2" d="M2587.07,187.19l.12,39.58a57.39,57.39,0,0,0,21.22-6.72l-.11-39.58a57.38,57.38,0,0,1-21.23,6.72Z"/></g></g><path class="cls-13" d="M2389.27,53.18c-16.88,9.75-17,25.61-.22,35.35l158.2,91.94c16.77,9.74,44.17,9.74,61.05,0L2595,172.73c-9.49,5.48-24.9,5.48-34.33,0L2402.45,80.8c-9.43-5.48-9.38-14.41.11-19.89Z"/></g><g class="cls-3"><path id="SVGID-21" data-name="SVGID" class="cls-2" d="M2395.41,335l.11,39.58c0-3.63,2.38-7.26,7.15-10l-.11-39.59C2397.79,327.74,2395.4,331.37,2395.41,335Z"/><g class="cls-23"><g class="cls-3"><path class="cls-2" d="M2395.41,335l.11,39.58c0-3.63,2.38-7.26,7.15-10l-.11-39.59c-4.77,2.76-7.16,6.39-7.15,10Z"/></g></g><path id="SVGID-22" data-name="SVGID" class="cls-2" d="M2376.54,335.07l.11,39.58c0,6.36,4.19,12.7,12.51,17.54l-.11-39.58C2380.72,347.77,2376.56,341.42,2376.54,335.07Z"/><g class="cls-24"><g class="cls-3"><path class="cls-2" d="M2376.54,335.07l.11,39.58a16.22,16.22,0,0,0,2.84,8.9l-.11-39.59a16.09,16.09,0,0,1-2.84-8.89Z"/><path class="cls-2" d="M2379.38,344l.11,39.59a28.52,28.52,0,0,0,9.67,8.64l-.11-39.58a28.43,28.43,0,0,1-9.67-8.65Z"/></g></g><polygon class="cls-2" points="2389.05 352.61 2389.16 392.19 2547.36 484.13 2547.25 444.54 2389.05 352.61"/><path id="SVGID-23" data-name="SVGID" class="cls-2" d="M2547.25,444.54l.11,39.59c16.77,9.74,44.17,9.74,61,0l-.11-39.58C2591.42,454.29,2564,454.29,2547.25,444.54Z"/><g class="cls-25"><g class="cls-3"><path class="cls-2" d="M2547.25,444.54l.11,39.59c6.42,3.73,14.4,6,22.75,6.9l-.11-39.58c-8.35-.87-16.33-3.17-22.75-6.91Z"/><path class="cls-2" d="M2570,451.45l.11,39.58a74.48,74.48,0,0,0,17.08-.18l-.12-39.58a75,75,0,0,1-17.07.18Z"/><path class="cls-2" d="M2587.07,451.27l.12,39.58a57.39,57.39,0,0,0,21.22-6.72l-.11-39.58a57.38,57.38,0,0,1-21.23,6.72Z"/></g></g><path class="cls-13" d="M2389.27,317.26c-16.88,9.74-17,25.6-.22,35.35l158.2,91.93c16.77,9.75,44.17,9.75,61.05,0L2595,436.81c-9.49,5.48-24.9,5.48-34.33,0l-158.2-91.94c-9.43-5.48-9.38-14.41.11-19.89Z"/></g><g class="cls-3"><path id="SVGID-24" data-name="SVGID" class="cls-2" d="M2522.21,43.25l34.22,19.89c3.14,1.82,7.48,1.57,12.26-1.19l-34.23-19.89C2529.68,44.82,2525.34,45.07,2522.21,43.25Z"/><g class="cls-26"><g class="cls-3"><path class="cls-2" d="M2568.69,62l-34.23-19.89c-4.78,2.76-9.12,3-12.25,1.19l34.22,19.89c3.14,1.82,7.48,1.57,12.26-1.19Z"/></g></g><path id="SVGID-25" data-name="SVGID" class="cls-2" d="M2512.74,59.57,2547,79.46c-5.5-3.19-8.91-10-8.94-19.61L2503.8,40C2503.83,49.59,2507.24,56.38,2512.74,59.57Z"/><g class="cls-27"><g class="cls-3"><path class="cls-2" d="M2538,59.85,2503.8,40a33.19,33.19,0,0,0,1,8.19L2539,68a32.7,32.7,0,0,1-1-8.19Z"/><path class="cls-2" d="M2539,68l-34.23-19.89a20,20,0,0,0,4.31,8.44l34.22,19.89A20,20,0,0,1,2539,68Z"/><path class="cls-2" d="M2543.31,76.48l-34.22-19.89a15,15,0,0,0,3.65,3L2547,79.46a15,15,0,0,1-3.65-3Z"/></g></g><polygon class="cls-2" points="2536.38 -519.32 2502.16 -539.21 2503.8 39.96 2538.02 59.85 2536.38 -519.32"/><path class="cls-2" d="M2566.89-572.16c-16.88,9.74-30.56,33.44-30.51,52.84L2538,59.85c.06,19.39,13.83,27.24,30.71,17.5l0-15.4c-9.49,5.48-17.25,1.08-17.28-9.83L2549.76-527c0-10.9,7.68-24.24,17.17-29.72Z"/></g></g></g><g id="kichen_table" data-name="kichen table"><polygon class="cls-13" points="3213.22 989.39 3509.77 818.18 3509.77 254.17 3213.22 425.39 3213.22 989.39"/><polygon class="cls-13" points="3499.57 812.28 3499.57 271.86 3223.43 431.28 3223.43 971.71 3499.57 812.28"/><polygon class="cls-28" points="3213.23 425.39 3509.77 254.17 3118.77 28.43 2822.22 199.64 3213.23 425.39"/><polygon class="cls-16" points="2822.22 199.64 2822.22 763.64 3213.22 989.39 3213.22 425.39 2822.22 199.64"/><polygon class="cls-13" points="3181.34 1010.1 3210.13 993.63 3210.13 861.11 3181.34 877.57 3181.34 1010.1"/><polygon class="cls-28" points="3181.34 877.57 3210.13 861.11 2819.14 635.36 2790.34 651.83 3181.34 877.57"/><polygon class="cls-16" points="2790.34 651.83 2790.34 784.35 3181.34 1010.1 3181.34 877.57 2790.34 651.83"/><polygon class="cls-13" points="3181.34 870.15 3210.13 853.68 3210.13 721.16 3181.34 737.62 3181.34 870.15"/><polygon class="cls-28" points="3181.34 737.62 3210.13 721.16 2819.14 495.41 2790.34 511.88 3181.34 737.62"/><polygon class="cls-16" points="2790.34 511.88 2790.34 644.4 3181.34 870.15 3181.34 737.62 2790.34 511.88"/><polygon class="cls-13" points="3181.34 730.15 3210.13 713.69 3210.13 581.16 3181.34 597.62 3181.34 730.15"/><polygon class="cls-28" points="3181.34 597.63 3210.13 581.16 2819.14 355.42 2790.34 371.88 3181.34 597.63"/><polygon class="cls-16" points="2790.34 371.88 2790.34 504.41 3181.34 730.15 3181.34 597.62 2790.34 371.88"/><polygon class="cls-13" points="3181.34 590.2 3210.13 573.74 3210.13 427.57 3181.34 444.04 3181.34 590.2"/><polygon class="cls-28" points="3181.34 444.04 3210.13 427.57 2819.14 201.83 2790.34 218.29 3181.34 444.04"/><polygon class="cls-16" points="2790.34 218.29 2790.34 364.46 3181.34 590.2 3181.34 444.04 2790.34 218.29"/><g class="cls-3"><polygon points="3023.54 406.32 3036.82 398.61 3036.88 378.43 3023.6 386.15 3023.54 406.32"/><polygon class="cls-13" points="3023.6 386.15 3036.88 378.43 2965.86 337.43 2952.59 345.15 3023.6 386.15"/><polygon points="2952.59 345.15 2952.53 365.32 3023.54 406.32 3023.6 386.15 2952.59 345.15"/></g><g class="cls-3"><polygon points="3023.54 562.49 3036.82 554.77 3036.88 534.6 3023.6 542.31 3023.54 562.49"/><polygon class="cls-13" points="3023.6 542.31 3036.88 534.6 2965.86 493.6 2952.59 501.31 3023.6 542.31"/><polygon points="2952.59 501.31 2952.53 521.49 3023.54 562.49 3023.6 542.31 2952.59 501.31"/></g><g class="cls-3"><polygon points="3023.54 700.49 3036.82 692.78 3036.88 672.6 3023.6 680.32 3023.54 700.49"/><polygon class="cls-13" points="3023.6 680.32 3036.88 672.6 2965.86 631.6 2952.59 639.32 3023.6 680.32"/><polygon points="2952.59 639.32 2952.53 659.49 3023.54 700.49 3023.6 680.32 2952.59 639.32"/></g><g class="cls-3"><polygon class="cls-2" points="3023.54 838.49 3036.82 830.78 3036.88 810.6 3023.6 818.32 3023.54 838.49"/><polygon class="cls-13" points="3023.6 818.32 3036.88 810.6 2965.86 769.61 2952.59 777.32 3023.6 818.32"/><polygon points="2952.59 777.32 2952.53 797.49 3023.54 838.49 3023.6 818.32 2952.59 777.32"/></g><polygon points="3201.82 458.01 3536.36 264.83 3536.36 242.31 3201.82 435.49 3201.82 458.01"/><polygon class="cls-29" points="3201.82 435.49 3536.36 242.31 3119.24 1.42 2784.7 194.6 3201.82 435.49"/><polygon points="2784.7 194.6 2784.7 217.12 3201.82 458.01 3201.82 435.49 2784.7 194.6"/></g><g id="cooker"><g id="cooker-2" data-name="cooker"><polygon class="cls-13" points="3632.71 1236.68 3935.61 1061.81 3935.61 499.68 3632.71 674.55 3632.71 1236.68"/><polygon class="cls-13" points="3925.18 1055.79 3925.18 517.74 3643.14 680.58 3643.14 1218.62 3925.18 1055.79"/><polygon class="cls-2" points="3632.72 674.56 3935.61 499.68 3536.25 269.11 3233.36 443.98 3632.72 674.56"/><polygon class="cls-2" points="3233.36 443.98 3233.36 1006.11 3632.71 1236.68 3632.71 674.55 3233.36 443.98"/><polygon class="cls-13" points="3600.15 1255.42 3629.56 1238.61 3629.56 1136.38 3600.15 1153.19 3600.15 1255.42"/><polygon class="cls-28" points="3600.15 1153.2 3629.56 1136.38 3230.2 905.81 3200.79 922.62 3600.15 1153.2"/><polygon class="cls-16" points="3200.79 922.62 3200.79 1024.85 3600.15 1255.42 3600.15 1153.19 3200.79 922.62"/><polygon class="cls-2" points="3600.15 1147.76 3629.56 1130.94 3629.56 806.01 3600.15 822.82 3600.15 1147.76"/><polygon class="cls-30" points="3600.15 822.83 3629.56 806.01 3230.2 575.44 3200.79 592.25 3600.15 822.83"/><polygon points="3200.79 592.25 3200.79 917.19 3600.15 1147.76 3600.15 822.82 3200.79 592.25"/><path class="cls-2" d="M3517.33,775c27.75,45.42,55.23,91,82.82,136.4v54.94q-66.49-110.7-133.68-220.7Z"/><path class="cls-2" d="M3399.57,707c68.79,113.49,135.08,229,200.58,346v94.74l-29.91-17.27c-80.3-167.82-172.56-328.32-273.29-482.72Z"/><polygon class="cls-13" points="3600.15 816.77 3629.56 799.96 3629.56 676.47 3600.15 693.29 3600.15 816.77"/><polygon class="cls-2" points="3600.15 693.29 3629.56 676.47 3230.2 445.9 3200.79 462.72 3600.15 693.29"/><polygon class="cls-16" points="3200.79 462.72 3200.79 586.2 3600.15 816.77 3600.15 693.29 3200.79 462.72"/><polygon points="3425.85 610.54 3584.41 702.08 3584.41 792.48 3425.85 700.94 3425.85 610.54"/><polygon class="cls-13" points="3601.07 688.56 3935.61 495.39 3935.61 472.87 3601.07 666.04 3601.07 688.56"/><polygon class="cls-31" points="3601.07 666.05 3935.61 472.87 3536.25 242.3 3201.71 435.47 3601.07 666.05"/><polygon class="cls-2" points="3914.75 472.87 3536.25 254.34 3222.56 435.47 3601.07 654.01 3914.75 472.87"/><polygon class="cls-2" points="3893.9 472.87 3536.25 266.38 3243.41 435.47 3601.07 641.97 3893.9 472.87"/><polygon class="cls-32" points="3201.71 435.47 3201.71 457.99 3601.07 688.56 3601.07 666.04 3201.71 435.47"/><path class="cls-2" d="M3300.56,561c1.58,0,2.63-1.25,2.66-3.25l.11-7a9.63,9.63,0,0,0-4.23-7.59l-8.62-5.15a3.91,3.91,0,0,0-2-.64c-1.58,0-2.62,1.24-2.65,3.24l-.11,7a9.59,9.59,0,0,0,4.22,7.59l8.62,5.16A4.14,4.14,0,0,0,3300.56,561Z"/><path class="cls-33" d="M3288.47,537.71a3.81,3.81,0,0,1,1.87.6l8.61,5.15a9.31,9.31,0,0,1,4.09,7.35l-.1,7c0,1.9-1,3-2.38,3a3.84,3.84,0,0,1-1.87-.6l-8.61-5.15a9.29,9.29,0,0,1-4.09-7.34l.11-7c0-1.9,1-3,2.37-3Zm0-.57c-1.76,0-2.92,1.36-2.95,3.52l-.11,7a9.81,9.81,0,0,0,4.37,7.84l8.61,5.15a4.38,4.38,0,0,0,2.15.68c1.76,0,2.92-1.35,2.95-3.52l.11-7a9.76,9.76,0,0,0-4.37-7.84l-8.61-5.15a4.35,4.35,0,0,0-2.15-.68Z"/><path class="cls-2" d="M3278.1,547.59c1.58,0,2.63-1.24,2.66-3.24l.1-7a9.61,9.61,0,0,0-4.22-7.6l-8.62-5.15a4.14,4.14,0,0,0-2-.64c-1.58,0-2.63,1.25-2.66,3.25l-.11,7a9.64,9.64,0,0,0,4.23,7.59l8.61,5.15A4.07,4.07,0,0,0,3278.1,547.59Z"/><path class="cls-33" d="M3266,524.27a3.8,3.8,0,0,1,1.86.61l8.62,5.15a9.28,9.28,0,0,1,4.09,7.34l-.11,7c0,1.9-1,3-2.37,3a3.81,3.81,0,0,1-1.87-.6l-8.61-5.15a9.31,9.31,0,0,1-4.09-7.35l.11-7c0-1.9,1-3,2.37-3Zm0-.56c-1.76,0-2.92,1.35-2.95,3.52l-.11,7a9.78,9.78,0,0,0,4.37,7.84l8.61,5.15a4.35,4.35,0,0,0,2.15.68c1.76,0,2.92-1.36,2.95-3.52l.11-7a9.81,9.81,0,0,0-4.37-7.84l-8.61-5.15a4.38,4.38,0,0,0-2.15-.68Z"/><path class="cls-2" d="M3255.63,534.16c1.59,0,2.63-1.25,2.66-3.24l.11-7a9.62,9.62,0,0,0-4.23-7.59l-8.61-5.15a4,4,0,0,0-2-.64c-1.59,0-2.63,1.25-2.66,3.24l-.11,7a9.65,9.65,0,0,0,4.23,7.6l8.61,5.15A4.07,4.07,0,0,0,3255.63,534.16Z"/><path class="cls-33" d="M3243.55,510.84a3.81,3.81,0,0,1,1.86.6l8.62,5.16a9.28,9.28,0,0,1,4.09,7.34l-.11,7c0,1.9-1,3-2.37,3a3.71,3.71,0,0,1-1.87-.6l-8.61-5.15a9.25,9.25,0,0,1-4.09-7.34l.1-7c0-1.9,1-3,2.38-3Zm0-.57c-1.76,0-2.91,1.36-3,3.53l-.1,7a9.78,9.78,0,0,0,4.36,7.84l8.62,5.15a4.37,4.37,0,0,0,2.15.69c1.76,0,2.92-1.36,2.95-3.53l.11-7a9.8,9.8,0,0,0-4.37-7.84l-8.61-5.15a4.3,4.3,0,0,0-2.16-.69Z"/><path class="cls-2" d="M3233.17,520.73c1.58,0,2.63-1.25,2.66-3.25l.11-7a9.63,9.63,0,0,0-4.23-7.59l-8.61-5.15a4.09,4.09,0,0,0-2-.65c-1.59,0-2.63,1.25-2.67,3.25l-.1,7a9.6,9.6,0,0,0,4.23,7.59l8.61,5.15A4.06,4.06,0,0,0,3233.17,520.73Z"/><path class="cls-33" d="M3221.08,497.41a3.81,3.81,0,0,1,1.87.6l8.61,5.15a9.31,9.31,0,0,1,4.09,7.34l-.11,7c0,1.9-1,3-2.37,3a3.87,3.87,0,0,1-1.87-.6l-8.61-5.15a9.3,9.3,0,0,1-4.09-7.35l.11-7c0-1.9,1-3,2.37-3Zm0-.57c-1.76,0-2.92,1.36-3,3.52l-.11,7a9.81,9.81,0,0,0,4.37,7.84l8.61,5.15a4.38,4.38,0,0,0,2.15.68c1.76,0,2.92-1.35,3-3.52l.11-7a9.76,9.76,0,0,0-4.37-7.84l-8.61-5.15a4.35,4.35,0,0,0-2.15-.68Z"/><path class="cls-2" d="M3300.23,582.05c1.59,0,2.64-1.24,2.67-3.24l.1-7a9.56,9.56,0,0,0-4.23-7.59l-8.61-5.16a4.14,4.14,0,0,0-2-.64c-1.58,0-2.63,1.25-2.66,3.24l-.11,7a9.64,9.64,0,0,0,4.23,7.59l8.61,5.15A4.07,4.07,0,0,0,3300.23,582.05Z"/><path class="cls-33" d="M3288.15,558.74a3.74,3.74,0,0,1,1.87.6l8.61,5.15a9.29,9.29,0,0,1,4.09,7.34l-.11,7c0,1.91-1,3-2.37,3a3.73,3.73,0,0,1-1.87-.61l-8.61-5.15a9.28,9.28,0,0,1-4.09-7.34l.11-7c0-1.9,1-3,2.37-3Zm0-.58c-1.76,0-2.92,1.36-2.95,3.53l-.11,7a9.78,9.78,0,0,0,4.37,7.85l8.61,5.15a4.35,4.35,0,0,0,2.15.68c1.76,0,2.92-1.36,2.95-3.53l.11-7a9.77,9.77,0,0,0-4.37-7.84l-8.61-5.15a4.4,4.4,0,0,0-2.15-.69Z"/><path class="cls-2" d="M3277.77,568.62c1.59,0,2.63-1.25,2.66-3.25l.11-7a9.64,9.64,0,0,0-4.23-7.59l-8.61-5.15a4.07,4.07,0,0,0-2-.64c-1.59,0-2.63,1.25-2.66,3.24l-.11,7a9.62,9.62,0,0,0,4.23,7.6l8.61,5.15A4.14,4.14,0,0,0,3277.77,568.62Z"/><path class="cls-33" d="M3265.68,545.3a3.83,3.83,0,0,1,1.87.61l8.61,5.15a9.23,9.23,0,0,1,4.09,7.34l-.1,7c0,1.9-1,3-2.37,3a3.71,3.71,0,0,1-1.87-.6l-8.61-5.15a9.23,9.23,0,0,1-4.09-7.34l.1-7c0-1.91,1-3,2.37-3Zm0-.57c-1.76,0-2.91,1.36-3,3.53l-.11,7a9.8,9.8,0,0,0,4.37,7.84l8.61,5.15a4.44,4.44,0,0,0,2.16.69c1.76,0,2.91-1.36,2.95-3.53l.1-7a9.8,9.8,0,0,0-4.36-7.85l-8.62-5.15a4.35,4.35,0,0,0-2.15-.68Z"/><path class="cls-2" d="M3255.31,555.19c1.59,0,2.63-1.25,2.66-3.25l.11-7a9.63,9.63,0,0,0-4.23-7.59l-8.61-5.15a4.09,4.09,0,0,0-2-.65c-1.58,0-2.62,1.25-2.66,3.25l-.1,7a9.57,9.57,0,0,0,4.23,7.59l8.61,5.15A4.06,4.06,0,0,0,3255.31,555.19Z"/><path class="cls-33" d="M3243.22,531.87a3.81,3.81,0,0,1,1.87.6l8.61,5.15a9.29,9.29,0,0,1,4.09,7.34l-.11,7c0,1.9-1,3-2.37,3a3.84,3.84,0,0,1-1.87-.6l-8.61-5.15a9.31,9.31,0,0,1-4.09-7.34l.11-7c0-1.9,1-3,2.37-3Zm0-.57c-1.76,0-2.92,1.35-2.95,3.52l-.11,7a9.83,9.83,0,0,0,4.37,7.84l8.61,5.15a4.38,4.38,0,0,0,2.15.68c1.76,0,2.92-1.36,2.95-3.52l.11-7a9.78,9.78,0,0,0-4.36-7.84l-8.62-5.15a4.35,4.35,0,0,0-2.15-.68Z"/><path class="cls-2" d="M3232.85,541.75c1.58,0,2.63-1.25,2.66-3.24l.1-7a9.61,9.61,0,0,0-4.22-7.59l-8.62-5.15a4,4,0,0,0-2-.64c-1.58,0-2.63,1.25-2.66,3.24l-.11,7a9.64,9.64,0,0,0,4.23,7.59l8.61,5.15A4.07,4.07,0,0,0,3232.85,541.75Z"/><path class="cls-33" d="M3220.76,518.43a3.76,3.76,0,0,1,1.87.61l8.61,5.15a9.28,9.28,0,0,1,4.09,7.34l-.11,7c0,1.9-1,3-2.37,3a3.87,3.87,0,0,1-1.87-.61l-8.61-5.15a9.28,9.28,0,0,1-4.09-7.34l.11-7c0-1.9,1-3,2.37-3Zm0-.57c-1.76,0-2.92,1.36-2.95,3.53l-.11,7a9.76,9.76,0,0,0,4.36,7.84l8.62,5.15a4.16,4.16,0,0,0,2.15.68c1.76,0,2.92-1.35,2.95-3.52l.11-7a9.77,9.77,0,0,0-4.37-7.84l-8.61-5.16a4.38,4.38,0,0,0-2.15-.68Z"/><path class="cls-2" d="M3299.91,603.08c1.58,0,2.63-1.25,2.66-3.25l.11-7a9.64,9.64,0,0,0-4.23-7.59l-8.61-5.15a4.07,4.07,0,0,0-2-.64c-1.59,0-2.63,1.24-2.66,3.24l-.11,7a9.59,9.59,0,0,0,4.23,7.59l8.61,5.15A4.06,4.06,0,0,0,3299.91,603.08Z"/><path class="cls-33" d="M3287.82,579.76a3.81,3.81,0,0,1,1.87.6l8.61,5.15a9.26,9.26,0,0,1,4.09,7.35l-.1,7c0,1.9-1,3-2.37,3a3.71,3.71,0,0,1-1.87-.6l-8.62-5.15a9.29,9.29,0,0,1-4.09-7.34l.11-7c0-1.9,1-3,2.37-3Zm0-.57c-1.76,0-2.92,1.36-2.95,3.52l-.11,7a9.8,9.8,0,0,0,4.37,7.84l8.61,5.15a4.42,4.42,0,0,0,2.16.68c1.75,0,2.91-1.35,3-3.52l.1-7a9.8,9.8,0,0,0-4.36-7.85l-8.62-5.15a4.35,4.35,0,0,0-2.15-.68Z"/><path class="cls-2" d="M3277.45,589.65c1.58,0,2.63-1.25,2.66-3.25l.11-7a9.63,9.63,0,0,0-4.23-7.59l-8.62-5.16a4.11,4.11,0,0,0-2-.64c-1.58,0-2.63,1.25-2.66,3.25l-.1,7a9.57,9.57,0,0,0,4.23,7.59l8.61,5.15A4.06,4.06,0,0,0,3277.45,589.65Z"/><path class="cls-33" d="M3265.36,566.33a3.74,3.74,0,0,1,1.87.6l8.61,5.15a9.29,9.29,0,0,1,4.09,7.34l-.11,7c0,1.9-1,3-2.37,3a3.84,3.84,0,0,1-1.87-.6l-8.61-5.15a9.31,9.31,0,0,1-4.09-7.35l.11-7c0-1.9,1-3,2.37-3Zm0-.57c-1.76,0-2.92,1.35-2.95,3.52l-.11,7a9.79,9.79,0,0,0,4.37,7.85l8.61,5.15a4.38,4.38,0,0,0,2.15.68c1.76,0,2.92-1.36,2.95-3.53l.11-7a9.76,9.76,0,0,0-4.37-7.84l-8.61-5.15a4.38,4.38,0,0,0-2.15-.68Z"/><path class="cls-2" d="M3255,576.21c1.59,0,2.63-1.25,2.66-3.24l.11-7a9.62,9.62,0,0,0-4.23-7.59l-8.61-5.15a4,4,0,0,0-2-.64c-1.58,0-2.63,1.25-2.66,3.24l-.11,7a9.65,9.65,0,0,0,4.23,7.6l8.61,5.15A4.07,4.07,0,0,0,3255,576.21Z"/><path class="cls-33" d="M3242.9,552.89a3.8,3.8,0,0,1,1.86.61l8.62,5.15a9.28,9.28,0,0,1,4.09,7.34l-.11,7c0,1.9-1,3-2.37,3a3.83,3.83,0,0,1-1.87-.61l-8.61-5.15a9.28,9.28,0,0,1-4.09-7.34l.1-7c0-1.9,1-3,2.38-3Zm0-.57c-1.76,0-2.92,1.36-3,3.53l-.1,7a9.76,9.76,0,0,0,4.36,7.84l8.62,5.15a4.37,4.37,0,0,0,2.15.69c1.76,0,2.92-1.36,2.95-3.53l.11-7a9.8,9.8,0,0,0-4.37-7.84l-8.61-5.15a4.3,4.3,0,0,0-2.15-.69Z"/><path class="cls-2" d="M3232.52,562.78c1.59,0,2.63-1.25,2.66-3.25l.11-7a9.6,9.6,0,0,0-4.23-7.59l-8.61-5.15a4.09,4.09,0,0,0-2-.65c-1.59,0-2.63,1.25-2.66,3.25l-.11,7a9.6,9.6,0,0,0,4.23,7.59l8.61,5.15A4.06,4.06,0,0,0,3232.52,562.78Z"/><path class="cls-33" d="M3220.43,539.46a3.81,3.81,0,0,1,1.87.6l8.61,5.15a9.3,9.3,0,0,1,4.1,7.34l-.11,7c0,1.9-1,3-2.37,3a3.81,3.81,0,0,1-1.87-.6l-8.62-5.15a9.3,9.3,0,0,1-4.08-7.34l.1-7c0-1.9,1-3,2.37-3Zm0-.57c-1.76,0-2.91,1.36-3,3.52l-.1,7a9.79,9.79,0,0,0,4.36,7.84l8.61,5.15a4.42,4.42,0,0,0,2.16.68c1.76,0,2.91-1.35,2.95-3.52l.11-7a9.83,9.83,0,0,0-4.37-7.84l-8.62-5.15a4.35,4.35,0,0,0-2.15-.68Z"/><path class="cls-2" d="M3299.59,624.1c1.58,0,2.63-1.24,2.66-3.24l.1-7a9.58,9.58,0,0,0-4.22-7.59l-8.62-5.16a4.11,4.11,0,0,0-2-.64c-1.58,0-2.63,1.25-2.66,3.24l-.11,7a9.64,9.64,0,0,0,4.23,7.59l8.62,5.15A3.91,3.91,0,0,0,3299.59,624.1Z"/><path class="cls-33" d="M3287.5,600.79a3.81,3.81,0,0,1,1.87.6l8.61,5.15a9.29,9.29,0,0,1,4.09,7.34l-.11,7c0,1.9-1,3-2.37,3a3.84,3.84,0,0,1-1.87-.6l-8.61-5.15a9.31,9.31,0,0,1-4.09-7.35l.11-7c0-1.9,1-3,2.37-3Zm0-.57c-1.76,0-2.92,1.35-3,3.52l-.11,7a9.75,9.75,0,0,0,4.37,7.84l8.61,5.16a4.35,4.35,0,0,0,2.15.68c1.76,0,2.92-1.36,3-3.53l.11-7a9.79,9.79,0,0,0-4.37-7.84l-8.61-5.15a4.38,4.38,0,0,0-2.15-.68Z"/><path class="cls-2" d="M3277.12,610.67c1.59,0,2.63-1.25,2.66-3.24l.11-7a9.62,9.62,0,0,0-4.23-7.59l-8.61-5.15a4,4,0,0,0-2-.64c-1.58,0-2.63,1.25-2.66,3.24l-.11,7a9.65,9.65,0,0,0,4.23,7.6l8.61,5.15A4.17,4.17,0,0,0,3277.12,610.67Z"/><path class="cls-33" d="M3265,587.35a3.81,3.81,0,0,1,1.86.6l8.62,5.15a9.31,9.31,0,0,1,4.09,7.35l-.11,7c0,1.9-1,3-2.37,3a3.87,3.87,0,0,1-1.87-.61l-8.61-5.15a9.25,9.25,0,0,1-4.09-7.34l.1-7c0-1.9,1-3,2.38-3Zm0-.57c-1.75,0-2.91,1.36-2.95,3.53l-.1,7a9.76,9.76,0,0,0,4.36,7.84l8.62,5.15a4.48,4.48,0,0,0,2.15.69c1.76,0,2.92-1.36,3-3.53l.11-7a9.83,9.83,0,0,0-4.37-7.85l-8.61-5.14a4.3,4.3,0,0,0-2.16-.69Z"/><path class="cls-2" d="M3254.66,597.24c1.58,0,2.63-1.25,2.66-3.25l.11-7a9.63,9.63,0,0,0-4.23-7.59l-8.61-5.16a4.17,4.17,0,0,0-2-.64c-1.59,0-2.63,1.25-2.66,3.25l-.11,7a9.57,9.57,0,0,0,4.23,7.59l8.61,5.15A4.06,4.06,0,0,0,3254.66,597.24Z"/><path class="cls-33" d="M3242.57,573.92a3.81,3.81,0,0,1,1.87.6l8.61,5.15a9.27,9.27,0,0,1,4.09,7.35l-.1,7c0,1.9-1,3-2.38,3a3.81,3.81,0,0,1-1.86-.6l-8.62-5.15a9.3,9.3,0,0,1-4.09-7.35l.11-7c0-1.9,1-3,2.37-3Zm0-.57c-1.76,0-2.92,1.35-2.95,3.52l-.11,7a9.81,9.81,0,0,0,4.37,7.84l8.62,5.15a4.35,4.35,0,0,0,2.15.68c1.76,0,2.91-1.36,2.94-3.52l.11-7a9.78,9.78,0,0,0-4.36-7.84l-8.62-5.15a4.35,4.35,0,0,0-2.15-.68Z"/><path class="cls-2" d="M3232.2,583.8c1.58,0,2.63-1.25,2.66-3.24l.11-7a9.64,9.64,0,0,0-4.23-7.59l-8.62-5.15a4,4,0,0,0-2-.64c-1.58,0-2.63,1.25-2.66,3.24l-.1,7a9.61,9.61,0,0,0,4.22,7.59l8.62,5.15A4,4,0,0,0,3232.2,583.8Z"/><path class="cls-33" d="M3220.11,560.48a3.87,3.87,0,0,1,1.87.61l8.61,5.15a9.28,9.28,0,0,1,4.09,7.34l-.11,7c0,1.9-1,3-2.37,3a3.87,3.87,0,0,1-1.87-.61l-8.61-5.15a9.28,9.28,0,0,1-4.09-7.34l.11-7c0-1.91,1-3,2.37-3Zm0-.57c-1.76,0-2.92,1.36-2.95,3.53l-.11,7a9.77,9.77,0,0,0,4.37,7.84l8.61,5.15a4.3,4.3,0,0,0,2.15.69c1.76,0,2.92-1.36,2.95-3.53l.11-7a9.75,9.75,0,0,0-4.37-7.84l-8.61-5.15a4.3,4.3,0,0,0-2.15-.69Z"/><path class="cls-33" d="M3373,589.05h0c.76.46,1.39.11,1.4-.78l.1-6.57a3.07,3.07,0,0,0-1.35-2.43h0c-.76-.45-1.39-.1-1.4.78l-.1,6.58A3,3,0,0,0,3373,589.05Z"/><path class="cls-33" d="M3385.25,600.24h0c.65.84,1.49,1.08,1.89.54l2.9-4a2.31,2.31,0,0,0-.47-2.49h0c-.65-.84-1.5-1.08-1.89-.54l-2.9,4A2.31,2.31,0,0,0,3385.25,600.24Z"/><path class="cls-33" d="M3394.09,616.12h0c.37,1,1.2,1.76,1.87,1.71l4.93-.37c.67-.05.91-.89.54-1.89h0c-.37-1-1.21-1.76-1.87-1.71l-4.94.37C3394,614.27,3393.72,615.12,3394.09,616.12Z"/><path class="cls-33" d="M3397.16,632.41h0a3.09,3.09,0,0,0,1.35,2.43l5.64,3.37c.76.46,1.39.11,1.4-.78h0a3.07,3.07,0,0,0-1.35-2.43l-5.64-3.37C3397.8,631.18,3397.17,631.52,3397.16,632.41Z"/><path class="cls-33" d="M3351.05,619.29h0c-.37-1-1.21-1.76-1.87-1.71l-4.94.37c-.66,0-.9.89-.53,1.88h0c.36,1,1.2,1.76,1.87,1.72l4.93-.37C3351.18,621.13,3351.42,620.29,3351.05,619.29Z"/><path class="cls-33" d="M3348,603h0a3.05,3.05,0,0,0-1.36-2.43L3341,597.2c-.76-.46-1.38-.11-1.4.78h0a3.07,3.07,0,0,0,1.35,2.42l5.64,3.38C3347.34,604.23,3348,603.88,3348,603Z"/><path class="cls-33" d="M3351.49,590.64h0a2.36,2.36,0,0,0-.47-2.49l-4.83-6.21c-.65-.83-1.5-1.07-1.89-.54h0a2.37,2.37,0,0,0,.47,2.5l4.83,6.2C3350.25,590.94,3351.1,591.18,3351.49,590.64Z"/><path class="cls-33" d="M3360.65,585.54h0c.67,0,.91-.9.54-1.89l-2.73-7.38c-.37-1-1.21-1.76-1.87-1.71h0c-.67.05-.91.9-.54,1.89l2.73,7.38C3359.15,584.82,3360,585.59,3360.65,585.54Z"/><g class="cls-3"><path id="SVGID-26" data-name="SVGID" class="cls-2" d="M3356.71,592.67l-7.86,4.41c4-2.26,9.55-1.85,15.6,1.77l7.86-4.41C3366.27,590.82,3360.74,590.41,3356.71,592.67Z"/><g class="cls-34"><g class="cls-3"><path class="cls-2" d="M3364.45,598.85l7.86-4.41c-6-3.62-11.57-4-15.6-1.77l-7.86,4.41c4-2.26,9.55-1.85,15.6,1.77Z"/></g></g><path id="SVGID-27" data-name="SVGID" class="cls-2" d="M3379.15,651.12l7.87-4.41c4-2.24,6.5-7.08,6.62-14,.26-13.93-9.29-31.06-21.33-38.26l-7.86,4.41c12,7.2,21.58,24.33,21.33,38.26C3385.65,644,3383.13,648.88,3379.15,651.12Z"/><g class="cls-35"><g class="cls-3"><path class="cls-2" d="M3379.15,651.12l7.87-4.41c4-2.24,6.5-7.08,6.62-14,.26-13.93-9.29-31.06-21.33-38.26l-7.86,4.41c12,7.2,21.58,24.33,21.33,38.26-.13,6.93-2.65,11.77-6.63,14Z"/></g></g><path class="cls-16" d="M3364.45,598.85c-12-7.19-22-1.72-22.23,12.21s9.29,31.1,21.31,38.28,22,1.73,22.25-12.23S3376.49,606.05,3364.45,598.85Z"/></g><g class="cls-3"><path id="SVGID-28" data-name="SVGID" d="M3359.14,644.31l7.86-4.41a3.2,3.2,0,0,0,1.39-2.93l-7.86,4.41A3.24,3.24,0,0,1,3359.14,644.31Z"/><g class="cls-36"><g class="cls-3"><path d="M3359.14,644.31l7.86-4.41a3.2,3.2,0,0,0,1.39-2.93l-7.86,4.41a3.24,3.24,0,0,1-1.39,2.93Z"/></g></g><polygon points="3360.53 641.38 3368.39 636.97 3368.81 614.06 3360.95 618.47 3360.53 641.38"/><path id="SVGID-29" data-name="SVGID" d="M3361.11,605.74l-7.86,4.41a3.26,3.26,0,0,1,3.26.37l7.87-4.41A3.27,3.27,0,0,0,3361.11,605.74Z"/><g class="cls-37"><g class="cls-3"><path d="M3356.51,610.52l7.87-4.41a3.27,3.27,0,0,0-3.27-.37l-7.86,4.41a3.26,3.26,0,0,1,3.26.37Z"/></g></g><path id="SVGID-30" data-name="SVGID" d="M3360.94,618.47l7.87-4.41a10,10,0,0,0-4.43-7.95l-7.87,4.41A10,10,0,0,1,3360.94,618.47Z"/><g class="cls-38"><g class="cls-3"><path d="M3360.94,618.47l7.87-4.41a10,10,0,0,0-4.43-7.95l-7.87,4.41a10,10,0,0,1,4.43,8Z"/></g></g><path class="cls-2" d="M3356.51,610.52c-2.49-1.49-4.59-.37-4.64,2.53l-.42,22.9a10.16,10.16,0,0,0,4.45,8c2.5,1.49,4.57.33,4.63-2.57l.41-22.91A10,10,0,0,0,3356.51,610.52Z"/></g><path class="cls-39" d="M3529.73,578.37c-16.8-9.7-26.05-22.66-26.05-36.49s9.25-26.79,26.05-36.49c34.27-19.79,90-19.79,124.32,0,16.8,9.7,26,22.66,26,36.49s-9.25,26.79-26,36.49c-17.14,9.9-39.65,14.85-62.16,14.85S3546.87,588.27,3529.73,578.37Zm1-71.17c-16.13,9.31-25,21.63-25,34.68s8.88,25.37,25,34.69c33.7,19.45,88.54,19.45,122.23,0,16.13-9.32,25-21.63,25-34.69s-8.88-25.37-25-34.68c-16.85-9.73-39-14.6-61.11-14.6S3547.62,497.47,3530.77,507.2Z"/><path class="cls-39" d="M3534.94,569.34c-13.44-7.76-20.84-17.51-20.84-27.46s7.4-19.7,20.84-27.46c15.06-8.69,35.29-13.48,56.95-13.48s41.88,4.79,56.94,13.48c13.44,7.76,20.84,17.51,20.84,27.46s-7.4,19.7-20.84,27.46c-15.06,8.7-35.28,13.49-56.94,13.49S3550,578,3534.94,569.34Zm1-53.11c-12.76,7.37-19.79,16.48-19.79,25.65s7,18.29,19.79,25.66c14.75,8.51,34.61,13.2,55.91,13.2s41.15-4.69,55.9-13.2c12.77-7.37,19.8-16.48,19.8-25.66s-7-18.28-19.8-25.65c-14.75-8.52-34.6-13.21-55.9-13.21S3550.73,507.71,3536,516.23Z"/><path class="cls-39" d="M3540.15,560.31c-9.78-5.65-15.62-12.54-15.62-18.43s5.84-12.78,15.62-18.43c13.5-7.79,31.88-12.09,51.74-12.09s38.23,4.3,51.73,12.09c9.79,5.65,15.63,12.54,15.63,18.43s-5.84,12.78-15.63,18.43c-13.5,7.8-31.87,12.09-51.73,12.09S3553.65,568.11,3540.15,560.31Zm1-35c-9.13,5.27-14.59,11.48-14.59,16.62s5.46,11.35,14.59,16.63c13.19,7.61,31.19,11.8,50.69,11.8s37.5-4.19,50.69-11.8c9.13-5.28,14.58-11.49,14.58-16.63s-5.45-11.35-14.58-16.62c-13.19-7.62-31.19-11.81-50.69-11.81S3554.39,517.64,3541.2,525.26Z"/><path class="cls-39" d="M3348.25,465.19c-11.35-6.55-17.6-15.33-17.6-24.71s6.25-18.16,17.6-24.72h0c23-13.29,60.5-13.29,83.52,0,11.35,6.56,17.61,15.34,17.61,24.72s-6.26,18.16-17.61,24.71c-11.51,6.65-26.63,10-41.76,10S3359.76,471.84,3348.25,465.19Zm1-47.62c-10.68,6.17-16.56,14.3-16.56,22.91s5.88,16.74,16.56,22.91c22.46,13,59,13,81.44,0,10.68-6.17,16.56-14.31,16.56-22.91s-5.88-16.74-16.56-22.91c-11.23-6.48-26-9.72-40.72-9.72S3360.52,411.09,3349.29,417.57Z"/><path class="cls-39" d="M3353.46,456.16c-7.87-4.55-12.39-10.26-12.39-15.68s4.52-11.14,12.39-15.69c9.48-5.47,22.8-8.6,36.55-8.6s27.08,3.13,36.55,8.6c7.87,4.55,12.39,10.27,12.39,15.69s-4.52,11.13-12.39,15.68c-9.47,5.47-22.79,8.61-36.55,8.61S3362.94,461.63,3353.46,456.16Zm1.05-29.56c-7.21,4.16-11.35,9.22-11.35,13.88s4.14,9.71,11.35,13.88c9.16,5.29,22.1,8.32,35.5,8.32s26.34-3,35.51-8.32c7.21-4.17,11.34-9.23,11.34-13.88s-4.13-9.72-11.34-13.88c-9.17-5.29-22.11-8.33-35.51-8.33S3363.67,421.31,3354.51,426.6Z"/><path class="cls-39" d="M3358.68,447.13c-5.4-3.12-6.8-5.73-7-6.22l-.2-.43.2-.44c.22-.49,1.62-3.1,7-6.22,7.82-4.51,19.53-7.21,31.33-7.21s23.52,2.7,31.33,7.21c5.4,3.12,6.8,5.73,7,6.22l.2.44-.2.43c-.22.49-1.62,3.1-7,6.22-7.81,4.51-19.53,7.21-31.33,7.21S3366.5,451.64,3358.68,447.13Zm61.62-11.5c-7.51-4.34-18.84-6.93-30.29-6.93s-22.78,2.59-30.29,6.93c-3.81,2.2-5.36,4-5.91,4.85.55.8,2.1,2.64,5.91,4.85,7.51,4.33,18.84,6.92,30.29,6.92s22.78-2.59,30.29-6.93c3.82-2.2,5.36-4,5.91-4.84C3425.66,439.67,3424.12,437.83,3420.3,435.63Z"/><path class="cls-39" d="M3470.85,394.4c-16.8-9.7-26-22.65-26-36.49s9.25-26.79,26-36.49c34.28-19.79,90.05-19.79,124.32,0,16.8,9.7,26,22.66,26,36.49s-9.25,26.79-26,36.49c-17.14,9.9-39.65,14.85-62.16,14.85S3488,404.3,3470.85,394.4Zm1-71.17c-16.12,9.31-25,21.63-25,34.68s8.88,25.38,25,34.69c33.71,19.45,88.54,19.45,122.24,0,16.13-9.31,25-21.63,25-34.69s-8.88-25.37-25-34.68c-16.85-9.73-39-14.59-61.12-14.59S3488.74,313.5,3471.89,323.23Z"/><path class="cls-39" d="M3476.07,385.37c-13.44-7.75-20.84-17.51-20.84-27.46s7.4-19.7,20.84-27.46c15.06-8.69,35.28-13.48,56.94-13.48s41.89,4.79,56.95,13.48c13.44,7.76,20.84,17.51,20.84,27.46s-7.4,19.71-20.84,27.46c-15.06,8.7-35.29,13.49-56.95,13.49S3491.13,394.07,3476.07,385.37Zm1-53.11c-12.77,7.37-19.8,16.48-19.8,25.65s7,18.29,19.8,25.66c14.75,8.51,34.6,13.2,55.9,13.2s41.16-4.69,55.91-13.2c12.76-7.37,19.79-16.48,19.79-25.66s-7-18.28-19.79-25.65c-14.75-8.52-34.61-13.21-55.91-13.21S3491.86,323.74,3477.11,332.26Z"/><path class="cls-39" d="M3481.28,376.34c-9.78-5.65-15.63-12.54-15.63-18.43s5.85-12.78,15.63-18.43c13.5-7.79,31.87-12.08,51.73-12.08s38.23,4.29,51.73,12.08c9.79,5.65,15.63,12.54,15.63,18.43s-5.84,12.78-15.63,18.43c-13.5,7.8-31.87,12.09-51.73,12.09S3494.78,384.14,3481.28,376.34Zm1-35c-9.13,5.27-14.58,11.49-14.58,16.62s5.45,11.36,14.58,16.63c13.19,7.61,31.19,11.81,50.69,11.81s37.5-4.2,50.69-11.81c9.14-5.27,14.58-11.49,14.58-16.63s-5.44-11.35-14.58-16.62c-13.19-7.62-31.19-11.81-50.69-11.81S3495.51,333.67,3482.32,341.29Z"/><path class="cls-39" d="M3693.13,484c-11.35-6.55-17.61-15.33-17.61-24.71s6.26-18.16,17.61-24.72c23-13.29,60.49-13.29,83.52,0,11.35,6.56,17.6,15.34,17.6,24.72s-6.25,18.16-17.6,24.71h0c-11.51,6.65-26.64,10-41.76,10S3704.64,490.68,3693.13,484Zm99-24.71c0-8.61-5.88-16.74-16.56-22.91-22.45-13-59-13-81.44,0-10.68,6.17-16.56,14.3-16.56,22.91s5.88,16.74,16.56,22.91c22.45,13,59,13,81.44,0C3786.29,476.06,3792.17,467.92,3792.17,459.32Z"/><path class="cls-39" d="M3698.34,475c-7.87-4.55-12.39-10.26-12.39-15.68s4.52-11.14,12.39-15.69c9.47-5.47,22.79-8.6,36.55-8.6s27.08,3.13,36.55,8.6c7.87,4.55,12.39,10.27,12.39,15.69s-4.52,11.13-12.39,15.68c-9.47,5.47-22.8,8.61-36.55,8.61S3707.81,480.47,3698.34,475Zm1-29.56c-7.21,4.16-11.34,9.22-11.34,13.88s4.13,9.71,11.34,13.88c9.17,5.29,22.11,8.32,35.51,8.32s26.34-3,35.5-8.32c7.22-4.17,11.35-9.23,11.35-13.88s-4.13-9.72-11.35-13.88c-9.16-5.29-22.1-8.33-35.5-8.33S3708.55,440.15,3699.38,445.44Z"/><path class="cls-39" d="M3703.55,466c-5.39-3.11-6.79-5.73-7-6.22l-.2-.43.2-.43c.22-.5,1.62-3.11,7-6.23,7.82-4.51,19.54-7.2,31.34-7.2s23.51,2.69,31.33,7.2c5.4,3.12,6.8,5.73,7,6.23l.2.43-.2.43c-.22.49-1.62,3.11-7,6.22-7.82,4.52-19.53,7.21-31.33,7.21S3711.37,470.49,3703.55,466Zm61.63-11.5c-7.52-4.34-18.84-6.93-30.29-6.93s-22.78,2.59-30.29,6.93c-3.82,2.2-5.36,4-5.91,4.85.55.8,2.09,2.64,5.91,4.85,7.51,4.33,18.84,6.92,30.29,6.92s22.78-2.59,30.29-6.92c3.81-2.21,5.36-4.05,5.9-4.85C3770.54,458.51,3769,456.67,3765.18,454.47Z"/><path class="cls-40" d="M3834.77,644.39l-6.27,407.85a16.91,16.91,0,0,0,2.2,9.35,9.66,9.66,0,0,0,5.63,4.28c3.19.88,7.14.25,11.4-2.13l8.29-4.61c10.77-6,19.74-21,19.93-33.3L3882.21,618c.14-9.14-4.59-14.36-11.45-14a12.87,12.87,0,0,0-2.07.29,19.92,19.92,0,0,0-5.69,2.18l-8.32,4.62C3843.93,617.09,3835,632.09,3834.77,644.39Z"/><path class="cls-13" d="M3834.77,644.39l-6.27,407.85a16.91,16.91,0,0,0,2.2,9.35,9.66,9.66,0,0,0,5.63,4.28,20,20,0,0,0,5.75-2.22l8.3-4.61c10.76-6,19.73-21,19.92-33.3l6.27-407.86c.11-7.44-3-12.29-7.88-13.59a19.92,19.92,0,0,0-5.69,2.18l-8.32,4.62C3843.93,617.09,3835,632.09,3834.77,644.39Z"/><path class="cls-40" d="M3765,683.5l-6.28,407.85a16.91,16.91,0,0,0,2.21,9.35,9.6,9.6,0,0,0,5.63,4.28c3.18.88,7.13.25,11.39-2.13l8.3-4.61c10.76-6,19.73-21,19.92-33.3l6.27-407.86c.14-9.14-4.6-14.36-11.46-14a13.74,13.74,0,0,0-2.06.28,20.21,20.21,0,0,0-5.7,2.19l-8.32,4.62C3774.2,656.2,3765.23,671.2,3765,683.5Z"/><path class="cls-13" d="M3765,683.5l-6.28,407.85a16.91,16.91,0,0,0,2.21,9.35,9.6,9.6,0,0,0,5.63,4.28,20.37,20.37,0,0,0,5.74-2.22l8.3-4.61c10.76-6,19.73-21,19.92-33.3L3806.83,657c.11-7.44-3-12.29-7.87-13.6a20.21,20.21,0,0,0-5.7,2.19l-8.32,4.62C3774.2,656.2,3765.23,671.2,3765,683.5Z"/><path class="cls-40" d="M3695.3,722.61,3689,1130.46a16.91,16.91,0,0,0,2.21,9.35,9.6,9.6,0,0,0,5.63,4.28c3.19.88,7.13.25,11.39-2.13l8.3-4.61c10.76-6,19.73-21,19.92-33.3l6.27-407.86c.14-9.14-4.6-14.36-11.45-14a15.15,15.15,0,0,0-2.07.29,20.32,20.32,0,0,0-5.7,2.19l-8.31,4.62C3704.46,695.31,3695.49,710.31,3695.3,722.61Z"/><path class="cls-13" d="M3695.3,722.61,3689,1130.46a16.91,16.91,0,0,0,2.21,9.35,9.6,9.6,0,0,0,5.63,4.28,20.37,20.37,0,0,0,5.74-2.22l8.3-4.61c10.77-6,19.74-21,19.92-33.3l6.27-407.86c.11-7.44-3-12.29-7.87-13.6a20.32,20.32,0,0,0-5.7,2.19l-8.31,4.62C3704.46,695.31,3695.49,710.31,3695.3,722.61Z"/></g></g><g id="kichen_table_washing" data-name="kichen table washing"><polygon class="cls-13" points="4044.12 1474.27 4347.01 1299.4 4347.01 725.75 4044.12 900.63 4044.12 1474.27"/><polygon class="cls-13" points="4336.58 1293.38 4336.58 743.81 4054.54 906.65 4054.54 1456.21 4336.58 1293.38"/><polygon class="cls-28" points="4044.12 900.63 4347.01 725.75 3947.65 495.19 3644.76 670.06 4044.12 900.63"/><polygon class="cls-16" points="3644.76 670.06 3644.76 1243.7 4044.12 1474.27 4044.12 900.63 3644.76 670.06"/><polygon class="cls-13" points="4011.55 1493.46 4040.97 1476.65 4040.97 1223.22 4011.55 1240.04 4011.55 1493.46"/><polygon class="cls-28" points="4011.56 1240.04 4040.97 1223.22 3641.61 992.65 3612.19 1009.47 4011.56 1240.04"/><polygon class="cls-16" points="3612.19 1009.47 3612.2 1262.89 4011.55 1493.46 4011.55 1240.04 3612.19 1009.47"/><polygon class="cls-13" points="4011.55 1230.96 4040.97 1214.15 4040.97 1066.97 4011.55 1083.79 4011.55 1230.96"/><polygon class="cls-28" points="4011.56 1083.79 4040.97 1066.97 3641.61 836.4 3612.19 853.22 4011.56 1083.79"/><polygon class="cls-16" points="3612.19 853.22 3612.2 1000.39 4011.55 1230.96 4011.55 1083.79 3612.19 853.22"/><polygon class="cls-13" points="4011.55 1074.3 4040.97 1057.49 4040.97 898.8 4011.55 915.62 4011.55 1074.3"/><polygon class="cls-28" points="4011.56 915.62 4040.97 898.8 3641.61 668.23 3612.19 685.04 4011.56 915.62"/><polygon class="cls-16" points="3612.19 685.04 3612.2 843.73 4011.55 1074.3 4011.55 915.62 3612.19 685.04"/><polygon class="cls-13" points="4497.22 1735.95 4799.6 1560.79 4799.6 987.15 4496.71 1162.02 4497.22 1735.95"/><polygon class="cls-13" points="4789.18 1554.77 4789.18 1005.21 4507.14 1168.04 4507.14 1717.6 4789.18 1554.77"/><polygon class="cls-28" points="4496.72 1162.02 4799.6 987.15 4352.07 728.89 4049.18 903.77 4496.72 1162.02"/><polygon class="cls-16" points="4049.18 903.77 4049.18 1477.41 4497.22 1735.95 4496.71 1162.02 4049.18 903.77"/><polygon class="cls-13" points="4230.53 1620.14 4259.94 1603.33 4259.94 1193.27 4230.53 1210.08 4230.53 1620.14"/><polygon class="cls-28" points="4230.54 1210.09 4259.94 1193.27 4050.01 1071.96 4020.6 1088.77 4230.54 1210.09"/><polygon class="cls-16" points="4020.6 1088.77 4020.6 1498.84 4230.53 1620.14 4230.53 1210.08 4020.6 1088.77"/><polygon class="cls-13" points="4464.15 1755 4493.56 1738.19 4493.56 1328.12 4464.15 1344.94 4464.15 1755"/><polygon class="cls-28" points="4464.15 1344.94 4493.56 1328.12 4277.62 1203.35 4248.21 1220.16 4464.15 1344.94"/><polygon class="cls-16" points="4248.21 1220.16 4248.21 1630.23 4464.15 1755 4464.15 1344.94 4248.21 1220.16"/><polygon class="cls-13" points="4464.36 1335.48 4493.77 1318.66 4493.77 1159.51 4464.36 1176.33 4464.36 1335.48"/><polygon class="cls-28" points="4464.37 1176.33 4493.77 1159.51 4050.26 903.4 4020.84 920.22 4464.37 1176.33"/><polygon class="cls-16" points="4020.84 920.22 4020.84 1079.37 4464.36 1335.48 4464.36 1176.33 4020.84 920.22"/><g class="cls-3"><polygon class="cls-2" points="4280.21 1139.42 4293.49 1131.71 4293.55 1111.53 4280.27 1119.24 4280.21 1139.42"/><polygon class="cls-13" points="4280.27 1119.24 4293.55 1111.53 4222.53 1070.53 4209.26 1078.25 4280.27 1119.24"/><polygon points="4209.26 1078.25 4209.2 1098.42 4280.21 1139.42 4280.27 1119.24 4209.26 1078.25"/></g><g class="cls-3"><polygon points="3849.48 877.77 3862.76 870.06 3862.82 849.88 3849.54 857.6 3849.48 877.77"/><polygon class="cls-13" points="3849.54 857.6 3862.82 849.88 3791.8 808.88 3778.53 816.6 3849.54 857.6"/><polygon points="3778.53 816.6 3778.47 836.77 3849.48 877.77 3849.54 857.6 3778.53 816.6"/></g><g class="cls-3"><polygon points="3849.48 1038.91 3862.76 1031.2 3862.82 1011.02 3849.54 1018.74 3849.48 1038.91"/><polygon class="cls-13" points="3849.54 1018.74 3862.82 1011.02 3791.8 970.02 3778.53 977.74 3849.54 1018.74"/><polygon points="3778.53 977.74 3778.47 997.91 3849.48 1038.91 3849.54 1018.74 3778.53 977.74"/></g><g class="cls-3"><polygon points="3849.48 1191.63 3862.76 1183.91 3862.82 1163.74 3849.54 1171.45 3849.48 1191.63"/><polygon class="cls-13" points="3849.54 1171.45 3862.82 1163.74 3791.8 1122.74 3778.53 1130.45 3849.54 1171.45"/><polygon points="3778.53 1130.45 3778.47 1150.63 3849.48 1191.63 3849.54 1171.45 3778.53 1130.45"/></g><g class="cls-3"><polygon class="cls-2" points="4268.88 1390.37 4279.02 1384.48 4279.23 1311.93 4269.09 1317.82 4268.88 1390.37"/><polygon class="cls-13" points="4269.09 1317.82 4279.23 1311.93 4261.99 1301.98 4251.86 1307.87 4269.09 1317.82"/><polygon points="4251.86 1307.87 4251.65 1380.42 4268.88 1390.37 4269.09 1317.82 4251.86 1307.87"/></g><g class="cls-3"><polygon class="cls-2" points="4212.8 1358.03 4222.93 1352.14 4223.14 1279.58 4213 1285.47 4212.8 1358.03"/><polygon class="cls-13" points="4213 1285.47 4223.14 1279.58 4205.91 1269.63 4195.77 1275.53 4213 1285.47"/><polygon points="4195.77 1275.53 4195.56 1348.08 4212.8 1358.03 4213 1285.47 4195.77 1275.53"/></g><polygon points="4479.76 1196.39 4814.3 1003.22 4814.3 980.69 4479.76 1173.87 4479.76 1196.39"/><polygon class="cls-29" points="4479.76 1173.87 4814.3 980.69 3935.58 472.9 3601.04 666.08 4479.76 1173.87"/><polygon points="3601.04 666.08 3601.04 688.6 4479.76 1196.39 4479.76 1173.87 3601.04 666.08"/></g><polygon class="cls-16" points="3116.94 2.74 3116.94 -309.99 4051.02 229.3 4051.02 542.03 3116.94 2.74"/><polygon class="cls-41" points="3581.48 8.08 3470.12 -56.22 3470.12 -101.4 3581.48 -37.1 3581.48 8.08"/><polygon class="cls-41" points="3697.84 75.26 3586.48 10.97 3586.48 -34.22 3697.84 30.08 3697.84 75.26"/><polygon class="cls-41" points="3814.21 142.44 3702.85 78.15 3702.85 32.97 3814.21 97.26 3814.21 142.44"/><polygon class="cls-41" points="3930.57 209.63 3819.21 145.33 3819.21 100.15 3930.57 164.44 3930.57 209.63"/><polygon class="cls-41" points="4046.93 276.81 3935.57 212.52 3935.57 167.33 4046.93 231.63 4046.93 276.81"/><polygon class="cls-41" points="3581.48 59.71 3470.12 -4.58 3470.12 -49.76 3581.48 14.53 3581.48 59.71"/><polygon class="cls-41" points="3697.84 126.9 3586.48 62.6 3586.48 17.42 3697.84 81.71 3697.84 126.9"/><polygon class="cls-41" points="3814.21 194.08 3702.85 129.79 3702.85 84.6 3814.21 148.9 3814.21 194.08"/><polygon class="cls-41" points="3930.57 261.26 3819.21 196.97 3819.21 151.79 3930.57 216.08 3930.57 261.26"/><polygon class="cls-41" points="4046.93 328.45 3935.57 264.15 3935.57 218.97 4046.93 283.26 4046.93 328.45"/><polygon class="cls-41" points="3465.11 44.17 3353.75 -20.13 3353.75 -65.31 3465.11 -1.02 3465.11 44.17"/><polygon class="cls-41" points="3581.48 111.35 3470.12 47.06 3470.12 1.87 3581.48 66.17 3581.48 111.35"/><polygon class="cls-41" points="3697.84 178.53 3586.48 114.24 3586.48 69.06 3697.84 133.35 3697.84 178.53"/><polygon class="cls-41" points="3814.21 245.72 3702.85 181.42 3702.85 136.24 3814.21 200.53 3814.21 245.72"/><polygon class="cls-41" points="3930.57 312.9 3819.21 248.6 3819.21 203.42 3930.57 267.72 3930.57 312.9"/><polygon class="cls-41" points="4046.93 380.08 3935.57 315.79 3935.57 270.61 4046.93 334.9 4046.93 380.08"/><polygon class="cls-41" points="3348.75 28.62 3237.39 -35.67 3237.39 -80.86 3348.75 -16.56 3348.75 28.62"/><polygon class="cls-41" points="3465.11 95.8 3353.75 31.51 3353.75 -13.67 3465.11 50.62 3465.11 95.8"/><polygon class="cls-41" points="3581.48 162.99 3470.12 98.69 3470.12 53.51 3581.48 117.8 3581.48 162.99"/><polygon class="cls-41" points="3697.84 230.17 3586.48 165.88 3586.48 120.69 3697.84 184.99 3697.84 230.17"/><polygon class="cls-41" points="3814.21 297.35 3702.85 233.06 3702.85 187.88 3814.21 252.17 3814.21 297.35"/><polygon class="cls-41" points="3930.57 364.54 3819.21 300.24 3819.21 255.06 3930.57 319.35 3930.57 364.54"/><polygon class="cls-41" points="4046.93 431.72 3935.57 367.43 3935.57 322.24 4046.93 386.54 4046.93 431.72"/><polygon class="cls-41" points="3232.38 13.07 3121.02 -51.22 3121.02 -96.4 3232.38 -32.11 3232.38 13.07"/><polygon class="cls-41" points="3348.75 80.25 3237.39 15.96 3237.39 -29.22 3348.75 35.07 3348.75 80.25"/><polygon class="cls-41" points="3465.11 147.44 3353.75 83.14 3353.75 37.96 3465.11 102.26 3465.11 147.44"/><polygon class="cls-41" points="3581.48 214.62 3470.12 150.33 3470.12 105.15 3581.48 169.44 3581.48 214.62"/><polygon class="cls-41" points="3697.84 281.81 3586.48 217.51 3586.48 172.33 3697.84 236.62 3697.84 281.81"/><polygon class="cls-41" points="3814.21 348.99 3702.85 284.69 3702.85 239.51 3814.21 303.81 3814.21 348.99"/><polygon class="cls-41" points="3930.57 416.17 3819.21 351.88 3819.21 306.7 3930.57 370.99 3930.57 416.17"/><polygon class="cls-41" points="4046.93 483.35 3935.57 419.06 3935.57 373.88 4046.93 438.17 4046.93 483.35"/><polygon class="cls-41" points="3232.38 64.71 3121.02 0.41 3121.02 -44.77 3232.38 19.53 3232.38 64.71"/><polygon class="cls-41" points="3348.75 131.89 3237.39 67.6 3237.39 22.42 3348.75 86.71 3348.75 131.89"/><polygon class="cls-41" points="3465.11 199.07 3353.75 134.78 3353.75 89.6 3465.11 153.89 3465.11 199.07"/><polygon class="cls-41" points="3581.48 266.26 3470.12 201.96 3470.12 156.78 3581.48 221.08 3581.48 266.26"/><polygon class="cls-41" points="3697.84 333.44 3586.48 269.15 3586.48 223.97 3697.84 288.26 3697.84 333.44"/><polygon class="cls-41" points="3814.21 400.62 3702.85 336.33 3702.85 291.15 3814.21 355.44 3814.21 400.62"/><polygon class="cls-41" points="3930.57 467.81 3819.21 403.51 3819.21 358.33 3930.57 422.63 3930.57 467.81"/><polygon class="cls-41" points="4046.93 534.99 3935.57 470.7 3935.57 425.51 4046.93 489.81 4046.93 534.99"/><polygon class="cls-16" points="3116.94 -305.18 3116.94 -617.9 4051.02 -78.61 4051.02 234.12 3116.94 -305.18"/><polygon class="cls-41" points="4046.93 20.53 3935.57 -43.76 3935.57 -88.94 4046.93 -24.65 4046.93 20.53"/><polygon class="cls-41" points="3930.57 4.98 3819.21 -59.31 3819.21 -104.49 3930.57 -40.2 3930.57 4.98"/><polygon class="cls-41" points="4046.93 72.17 3935.57 7.87 3935.57 -37.31 4046.93 26.98 4046.93 72.17"/><polygon class="cls-41" points="3930.57 56.62 3819.21 -7.67 3819.21 -52.85 3930.57 11.44 3930.57 56.62"/><polygon class="cls-41" points="4046.93 123.8 3935.57 59.51 3935.57 14.33 4046.93 78.62 4046.93 123.8"/><polygon class="cls-41" points="3814.21 41.07 3702.85 -23.22 3702.85 -68.4 3814.21 -4.11 3814.21 41.07"/><polygon class="cls-41" points="3930.57 108.26 3819.21 43.96 3819.21 -1.22 3930.57 63.08 3930.57 108.26"/><polygon class="cls-41" points="4046.93 175.44 3935.57 111.15 3935.57 65.96 4046.93 130.26 4046.93 175.44"/><polygon class="cls-41" points="3697.84 25.53 3586.48 -38.77 3586.48 -83.95 3697.84 -19.66 3697.84 25.53"/><polygon class="cls-41" points="3814.21 92.71 3702.85 28.42 3702.85 -16.77 3814.21 47.53 3814.21 92.71"/><polygon class="cls-41" points="3930.57 159.89 3819.21 95.6 3819.21 50.42 3930.57 114.71 3930.57 159.89"/><polygon class="cls-41" points="4046.93 227.08 3935.57 162.78 3935.57 117.6 4046.93 181.89 4046.93 227.08"/><polygon class="cls-16" points="4047.24 539.93 4047.24 227.2 4981.32 766.5 4981.32 1079.22 4047.24 539.93"/><polygon class="cls-41" points="4162.68 343.72 4051.32 279.43 4051.32 234.24 4162.68 298.54 4162.68 343.72"/><polygon class="cls-41" points="4279.05 410.9 4167.69 346.61 4167.69 301.43 4279.05 365.72 4279.05 410.9"/><polygon class="cls-41" points="4395.41 478.08 4284.05 413.79 4284.05 368.61 4395.41 432.9 4395.41 478.08"/><polygon class="cls-41" points="4511.77 545.27 4400.41 480.98 4400.41 435.79 4511.77 500.09 4511.77 545.27"/><polygon class="cls-41" points="4628.14 612.45 4516.78 548.16 4516.78 502.98 4628.14 567.27 4628.14 612.45"/><polygon class="cls-41" points="4744.5 679.63 4633.14 615.34 4633.14 570.16 4744.5 634.45 4744.5 679.63"/><polygon class="cls-41" points="4860.87 746.82 4749.51 682.52 4749.51 637.34 4860.87 701.64 4860.87 746.82"/><polygon class="cls-41" points="4162.68 395.36 4051.32 331.06 4051.32 285.88 4162.68 350.17 4162.68 395.36"/><polygon class="cls-41" points="4279.05 462.54 4167.69 398.25 4167.69 353.06 4279.05 417.36 4279.05 462.54"/><polygon class="cls-41" points="4395.41 529.72 4284.05 465.43 4284.05 420.25 4395.41 484.54 4395.41 529.72"/><polygon class="cls-41" points="4511.77 596.9 4400.41 532.61 4400.41 487.43 4511.77 551.72 4511.77 596.9"/><polygon class="cls-41" points="4628.14 664.09 4516.78 599.79 4516.78 554.61 4628.14 618.91 4628.14 664.09"/><polygon class="cls-41" points="4744.5 731.27 4633.14 666.98 4633.14 621.79 4744.5 686.09 4744.5 731.27"/><polygon class="cls-41" points="4860.87 798.45 4749.51 734.16 4749.51 688.98 4860.87 753.27 4860.87 798.45"/><polygon class="cls-41" points="4162.68 446.99 4051.32 382.7 4051.32 337.52 4162.68 401.81 4162.68 446.99"/><polygon class="cls-41" points="4279.05 514.17 4167.69 449.88 4167.69 404.7 4279.05 468.99 4279.05 514.17"/><polygon class="cls-41" points="4395.41 581.36 4284.05 517.06 4284.05 471.88 4395.41 536.18 4395.41 581.36"/><polygon class="cls-41" points="4511.77 648.54 4400.41 584.25 4400.41 539.07 4511.77 603.36 4511.77 648.54"/><polygon class="cls-41" points="4628.14 715.72 4516.78 651.43 4516.78 606.25 4628.14 670.54 4628.14 715.72"/><polygon class="cls-41" points="4744.5 782.91 4633.14 718.61 4633.14 673.43 4744.5 737.73 4744.5 782.91"/><polygon class="cls-41" points="4860.87 850.09 4749.51 785.8 4749.51 740.62 4860.87 804.91 4860.87 850.09"/><polygon class="cls-41" points="4162.68 498.63 4051.32 434.33 4051.32 389.15 4162.68 453.45 4162.68 498.63"/><polygon class="cls-41" points="4279.05 565.81 4167.69 501.52 4167.69 456.33 4279.05 520.63 4279.05 565.81"/><polygon class="cls-41" points="4395.41 632.99 4284.05 568.7 4284.05 523.52 4395.41 587.81 4395.41 632.99"/><polygon class="cls-41" points="4511.77 700.18 4400.41 635.88 4400.41 590.7 4511.77 655 4511.77 700.18"/><polygon class="cls-41" points="4628.14 767.36 4516.78 703.07 4516.78 657.88 4628.14 722.18 4628.14 767.36"/><polygon class="cls-41" points="4744.5 834.54 4633.14 770.25 4633.14 725.07 4744.5 789.36 4744.5 834.54"/><polygon class="cls-41" points="4860.87 901.73 4749.51 837.43 4749.51 792.25 4860.87 856.54 4860.87 901.73"/><polygon class="cls-41" points="4162.68 550.26 4051.32 485.97 4051.32 440.79 4162.68 505.08 4162.68 550.26"/><polygon class="cls-41" points="4279.05 617.45 4167.69 553.15 4167.69 507.97 4279.05 572.26 4279.05 617.45"/><polygon class="cls-41" points="4395.41 684.63 4284.05 620.34 4284.05 575.15 4395.41 639.45 4395.41 684.63"/><polygon class="cls-41" points="4511.77 751.81 4400.41 687.52 4400.41 642.34 4511.77 706.63 4511.77 751.81"/><polygon class="cls-41" points="4628.14 819 4516.78 754.7 4516.78 709.52 4628.14 773.82 4628.14 819"/><polygon class="cls-41" points="4744.5 886.18 4633.14 821.89 4633.14 776.7 4744.5 841 4744.5 886.18"/><polygon class="cls-41" points="4860.87 953.36 4749.51 889.07 4749.51 843.89 4860.87 908.18 4860.87 953.36"/><polygon class="cls-41" points="4162.68 601.9 4051.32 537.61 4051.32 492.43 4162.68 556.72 4162.68 601.9"/><polygon class="cls-41" points="4279.05 669.08 4167.69 604.79 4167.69 559.61 4279.05 623.9 4279.05 669.08"/><polygon class="cls-41" points="4395.41 736.27 4284.05 671.97 4284.05 626.79 4395.41 691.09 4395.41 736.27"/><polygon class="cls-41" points="4511.77 803.45 4400.41 739.16 4400.41 693.97 4511.77 758.27 4511.77 803.45"/><polygon class="cls-41" points="4628.14 870.63 4516.78 806.34 4516.78 761.16 4628.14 825.45 4628.14 870.63"/><polygon class="cls-41" points="4744.5 937.82 4633.14 873.52 4633.14 828.34 4744.5 892.63 4744.5 937.82"/><polygon class="cls-41" points="4860.87 1005 4749.51 940.71 4749.51 895.52 4860.87 959.82 4860.87 1005"/><polygon class="cls-16" points="4047.24 232.01 4047.24 -80.71 4981.32 458.58 4981.32 771.31 4047.24 232.01"/><polygon class="cls-41" points="4162.68 35.8 4051.32 -28.49 4051.32 -73.67 4162.68 -9.38 4162.68 35.8"/><polygon class="cls-41" points="4279.05 102.99 4167.69 38.69 4167.69 -6.49 4279.05 57.8 4279.05 102.99"/><polygon class="cls-41" points="4395.41 170.17 4284.05 105.88 4284.05 60.7 4395.41 124.99 4395.41 170.17"/><polygon class="cls-41" points="4511.77 237.35 4400.41 173.06 4400.41 127.88 4511.77 192.17 4511.77 237.35"/><polygon class="cls-41" points="4628.14 304.54 4516.78 240.24 4516.78 195.06 4628.14 259.36 4628.14 304.54"/><polygon class="cls-41" points="4744.5 371.72 4633.14 307.43 4633.14 262.24 4744.5 326.54 4744.5 371.72"/><polygon class="cls-41" points="4860.87 438.9 4749.51 374.61 4749.51 329.43 4860.87 393.72 4860.87 438.9"/><polygon class="cls-41" points="4162.68 87.44 4051.32 23.15 4051.32 -22.04 4162.68 42.26 4162.68 87.44"/><polygon class="cls-41" points="4279.05 154.62 4167.69 90.33 4167.69 45.15 4279.05 109.44 4279.05 154.62"/><polygon class="cls-41" points="4395.41 221.81 4284.05 157.51 4284.05 112.33 4395.41 176.63 4395.41 221.81"/><polygon class="cls-41" points="4511.77 288.99 4400.41 224.7 4400.41 179.51 4511.77 243.81 4511.77 288.99"/><polygon class="cls-41" points="4628.14 356.17 4516.78 291.88 4516.78 246.7 4628.14 310.99 4628.14 356.17"/><polygon class="cls-41" points="4744.5 423.36 4633.14 359.06 4633.14 313.88 4744.5 378.17 4744.5 423.36"/><polygon class="cls-41" points="4860.87 490.54 4749.51 426.25 4749.51 381.06 4860.87 445.36 4860.87 490.54"/><polygon class="cls-41" points="4162.68 139.08 4051.32 74.78 4051.32 29.6 4162.68 93.89 4162.68 139.08"/><polygon class="cls-41" points="4279.05 206.26 4167.69 141.97 4167.69 96.78 4279.05 161.08 4279.05 206.26"/><polygon class="cls-41" points="4395.41 273.44 4284.05 209.15 4284.05 163.97 4395.41 228.26 4395.41 273.44"/><polygon class="cls-41" points="4511.77 340.63 4400.41 276.33 4400.41 231.15 4511.77 295.44 4511.77 340.63"/><polygon class="cls-41" points="4628.14 407.81 4516.78 343.51 4516.78 298.33 4628.14 362.63 4628.14 407.81"/><polygon class="cls-41" points="4744.5 474.99 4633.14 410.7 4633.14 365.52 4744.5 429.81 4744.5 474.99"/><polygon class="cls-41" points="4860.87 542.17 4749.51 477.88 4749.51 432.7 4860.87 496.99 4860.87 542.17"/><polygon class="cls-41" points="4162.68 190.71 4051.32 126.42 4051.32 81.24 4162.68 145.53 4162.68 190.71"/><polygon class="cls-41" points="4279.05 257.9 4167.69 193.6 4167.69 148.42 4279.05 212.71 4279.05 257.9"/><polygon class="cls-41" points="4395.41 325.08 4284.05 260.79 4284.05 215.6 4395.41 279.9 4395.41 325.08"/><polygon class="cls-41" points="4511.77 392.26 4400.41 327.97 4400.41 282.79 4511.77 347.08 4511.77 392.26"/><polygon class="cls-41" points="4628.14 459.44 4516.78 395.15 4516.78 349.97 4628.14 414.26 4628.14 459.44"/><polygon class="cls-41" points="4744.5 526.63 4633.14 462.33 4633.14 417.15 4744.5 481.45 4744.5 526.63"/><polygon class="cls-41" points="4860.87 593.81 4749.51 529.52 4749.51 484.34 4860.87 548.63 4860.87 593.81"/><polygon class="cls-41" points="4162.68 242.35 4051.32 178.06 4051.32 132.87 4162.68 197.17 4162.68 242.35"/><polygon class="cls-41" points="4279.05 309.53 4167.69 245.24 4167.69 200.06 4279.05 264.35 4279.05 309.53"/><polygon class="cls-41" points="4395.41 376.71 4284.05 312.42 4284.05 267.24 4395.41 331.53 4395.41 376.71"/><polygon class="cls-41" points="4511.77 443.9 4400.41 379.61 4400.41 334.42 4511.77 398.72 4511.77 443.9"/><polygon class="cls-41" points="4628.14 511.08 4516.78 446.79 4516.78 401.61 4628.14 465.9 4628.14 511.08"/><polygon class="cls-41" points="4744.5 578.26 4633.14 513.97 4633.14 468.79 4744.5 533.08 4744.5 578.26"/><polygon class="cls-41" points="4860.87 645.45 4749.51 581.15 4749.51 535.97 4860.87 600.27 4860.87 645.45"/><polygon class="cls-41" points="4162.68 293.99 4051.32 229.69 4051.32 184.51 4162.68 248.8 4162.68 293.99"/><polygon class="cls-41" points="4279.05 361.17 4167.69 296.88 4167.69 251.69 4279.05 315.99 4279.05 361.17"/><polygon class="cls-41" points="4395.41 428.35 4284.05 364.06 4284.05 318.88 4395.41 383.17 4395.41 428.35"/><polygon class="cls-41" points="4511.77 495.53 4400.41 431.24 4400.41 386.06 4511.77 450.35 4511.77 495.53"/><polygon class="cls-41" points="4628.14 562.72 4516.78 498.42 4516.78 453.24 4628.14 517.54 4628.14 562.72"/><polygon class="cls-41" points="4744.5 629.9 4633.14 565.61 4633.14 520.43 4744.5 584.72 4744.5 629.9"/><polygon class="cls-41" points="4860.87 697.08 4749.51 632.79 4749.51 587.61 4860.87 651.9 4860.87 697.08"/><g class="cls-3"><polygon class="cls-6" points="4678.34 738.58 4537.61 656.8 4659.1 586.67 4799.82 668.45 4678.34 738.58"/><polygon class="cls-42" points="3981.1 1797.46 3840.37 1715.68 4537.61 656.8 4678.34 738.58 3981.1 1797.46"/><polygon class="cls-43" points="3640.01 1994.39 3499.29 1912.61 3840.37 1715.68 3981.1 1797.46 3640.01 1994.39"/><polygon class="cls-6" points="3640.94 2321.89 3500.22 2240.11 3499.29 1912.61 3640.01 1994.39 3640.94 2321.89"/><polygon class="cls-7" points="4799.82 668.45 4800 1651.53 3640.94 2321.89 3640.01 1994.39 3981.1 1797.46 4678.34 738.58 4799.82 668.45"/></g><polygon class="cls-44" points="19.14 2121.18 315.31 2292.24 392.54 2248.95 384.24 1881.18 19.14 2121.18"/><polyline class="cls-45" points="922.44 1499.26 1114.95 1610.4 392.54 2027.49 200.03 1916.34"/><polygon class="cls-46" points="200.03 1916.34 157.27 1806.42 898.07 1384.54 922.44 1499.26 200.03 1916.34"/><polygon class="cls-47" points="922.44 1499.26 963.89 1410.31 1158.05 1517.67 1114.95 1609.57 922.44 1499.26"/><polygon class="cls-48" points="238.08 1929.82 277.44 1952.54 283.55 1956.08 324.63 1979.78 330.91 1983.44 371.96 2007.13 378.66 2011 419.73 2034.69 420.32 2035.05 1104.24 1640.2 1103.65 1639.84 1062.57 1616.12 1062.54 1616.12 1055.87 1612.28 1014.8 1588.56 1008.54 1584.96 1008.51 1584.96 967.46 1561.23 961.36 1557.69 921.96 1534.97 721.72 1650.58 714.67 1654.65 450.63 1807.1 443.57 1811.17 238.08 1929.82"/><polygon class="cls-49" points="378.66 2011 419.73 2034.69 564.23 1951.27 523.16 1927.58 378.66 2011"/><polygon class="cls-50" points="238.08 1929.82 277.44 1952.54 482.97 1833.89 443.57 1811.17 238.08 1929.82"/><polygon class="cls-51" points="330.91 1983.44 371.96 2007.13 627.65 1859.5 586.57 1835.81 330.91 1983.44"/><polygon class="cls-52" points="283.55 1956.08 324.63 1979.78 487.9 1885.53 446.82 1861.8 283.55 1956.08"/><polygon class="cls-49" points="835.3 1794.78 571.27 1947.22 530.2 1923.5 794.23 1771.06 835.3 1794.78"/><polygon class="cls-53" points="450.63 1807.1 490.02 1829.85 754.03 1677.41 714.67 1654.65 450.63 1807.1"/><polygon class="cls-51" points="898.72 1703.01 634.7 1855.45 593.62 1831.73 857.65 1679.3 898.72 1703.01"/><polygon class="cls-52" points="758.96 1729.03 494.94 1881.46 453.87 1857.75 717.89 1705.31 758.96 1729.03"/><polygon class="cls-50" points="801.27 1766.99 842.35 1790.72 1103.65 1639.84 1062.57 1616.12 1062.54 1616.12 801.27 1766.99"/><polygon class="cls-50" points="721.72 1650.58 761.08 1673.33 961.36 1557.69 921.96 1534.97 721.72 1650.58"/><polygon class="cls-54" points="864.69 1675.22 905.76 1698.95 1055.87 1612.28 1014.8 1588.56 864.69 1675.22"/><polygon class="cls-52" points="724.94 1701.25 766.01 1724.97 1008.51 1584.96 967.46 1561.23 724.94 1701.25"/><polygon class="cls-55" points="238.07 1929.82 238.07 1941.23 420.31 2046.45 420.31 2035.05 238.07 1929.82"/><polygon class="cls-56" points="1104.22 1640.19 1104.22 1651.6 420.31 2046.45 420.31 2035.05 1104.22 1640.19"/><polygon class="cls-47" points="1114.95 1831.87 392.54 2248.95 392.54 2026.66 1114.95 1609.57 1114.95 1831.87"/><polygon class="cls-45" points="200.03 1916.34 200.03 2137.74 392.54 2248.95 392.54 2026.66 200.03 1916.34"/><polygon class="cls-47" points="200.03 1916.34 110.46 1910.85 316.5 2027.49 392.54 2026.66 200.03 1916.34"/><polygon class="cls-46" points="392.54 2026.66 344.52 1929.26 1080.93 1511.58 1114.95 1609.57 392.54 2026.66"/><polygon class="cls-44" points="1435.45 1888.36 859.52 2067.92 974.54 1941.95 568.27 2062.95 472.01 2152.22 449.43 2214.55 666.29 2338.5 1440.87 1890.99 1435.45 1888.36"/><polygon class="cls-48" points="578.48 2163.63 617.43 2186.11 623.47 2189.61 664.11 2213.06 670.33 2216.68 710.94 2240.12 717.57 2243.95 758.21 2267.39 758.79 2267.74 1435.47 1877.07 1434.88 1876.72 1394.24 1853.25 1394.21 1853.25 1387.61 1849.45 1346.97 1825.98 1340.78 1822.42 1340.76 1822.42 1300.14 1798.95 1294.1 1795.44 1255.12 1772.96 1057 1887.35 1050.02 1891.38 788.78 2042.2 781.8 2046.23 578.48 2163.63"/><polygon class="cls-49" points="717.57 2243.95 758.21 2267.39 901.18 2184.86 860.54 2161.41 717.57 2243.95"/><polygon class="cls-50" points="578.48 2163.63 617.43 2186.11 820.78 2068.72 781.8 2046.23 578.48 2163.63"/><polygon class="cls-51" points="670.33 2216.68 710.94 2240.12 963.92 2094.06 923.28 2070.61 670.33 2216.68"/><polygon class="cls-52" points="623.47 2189.61 664.11 2213.06 825.65 2119.81 785.01 2096.34 623.47 2189.61"/><polygon class="cls-49" points="1169.38 2030.02 908.14 2180.84 867.51 2157.38 1128.74 2006.56 1169.38 2030.02"/><polygon class="cls-53" points="788.78 2042.2 827.75 2064.72 1088.97 1913.89 1050.02 1891.38 788.78 2042.2"/><polygon class="cls-51" points="1232.13 1939.22 970.9 2090.05 930.26 2066.59 1191.49 1915.76 1232.13 1939.22"/><polygon class="cls-52" points="1093.85 1964.96 832.62 2115.79 791.98 2092.33 1053.22 1941.5 1093.85 1964.96"/><polygon class="cls-50" points="1135.71 2002.53 1176.35 2026 1434.88 1876.72 1394.24 1853.25 1394.21 1853.25 1135.71 2002.53"/><polygon class="cls-50" points="1057 1887.35 1095.95 1909.86 1294.1 1795.44 1255.12 1772.96 1057 1887.35"/><polygon class="cls-54" points="1198.45 1911.73 1239.1 1935.2 1387.61 1849.45 1346.97 1825.98 1198.45 1911.73"/><polygon class="cls-52" points="1060.18 1937.48 1100.82 1960.95 1340.76 1822.42 1300.14 1798.95 1060.18 1937.48"/><polygon class="cls-55" points="578.47 2163.64 578.47 2174.92 758.79 2279.03 758.79 2267.74 578.47 2163.64"/><polygon class="cls-56" points="1435.45 1877.07 1435.45 1888.36 758.79 2279.03 758.79 2267.74 1435.45 1877.07"/><polygon class="cls-44" points="472.01 2163.51 702.92 2244.43 1334.41 1879.58 1329 1876.95 472.01 2163.51"/><polygon class="cls-48" points="472.03 2152.22 510.97 2174.7 517.02 2178.21 557.66 2201.65 563.88 2205.27 604.49 2228.72 611.12 2232.54 651.76 2255.98 652.34 2256.33 1329.01 1865.66 1328.43 1865.31 1287.79 1841.84 1287.76 1841.84 1281.16 1838.05 1240.52 1814.57 1234.33 1811.01 1234.3 1811.01 1193.69 1787.54 1187.64 1784.03 1148.67 1761.55 950.54 1875.94 943.57 1879.97 682.32 2030.8 675.35 2034.83 472.03 2152.22"/><polygon class="cls-49" points="611.12 2232.54 651.76 2255.98 794.73 2173.45 754.09 2150 611.12 2232.54"/><polygon class="cls-50" points="472.03 2152.22 510.97 2174.7 714.32 2057.31 675.35 2034.83 472.03 2152.22"/><polygon class="cls-51" points="563.88 2205.27 604.49 2228.72 857.47 2082.65 816.83 2059.2 563.88 2205.27"/><polygon class="cls-52" points="517.02 2178.21 557.66 2201.65 719.2 2108.4 678.56 2084.93 517.02 2178.21"/><polygon class="cls-49" points="1062.92 2018.61 801.69 2169.43 761.05 2145.97 1022.29 1995.15 1062.92 2018.61"/><polygon class="cls-53" points="682.32 2030.8 721.3 2053.31 982.51 1902.48 943.57 1879.97 682.32 2030.8"/><polygon class="cls-51" points="1125.67 1927.81 864.44 2078.64 823.81 2055.18 1085.04 1904.35 1125.67 1927.81"/><polygon class="cls-52" points="987.4 1953.55 726.16 2104.38 685.53 2080.92 946.76 1930.09 987.4 1953.55"/><polygon class="cls-50" points="1029.26 1991.12 1069.9 2014.59 1328.43 1865.31 1287.79 1841.84 1287.76 1841.84 1029.26 1991.12"/><polygon class="cls-50" points="950.54 1875.94 989.49 1898.45 1187.64 1784.03 1148.67 1761.55 950.54 1875.94"/><polygon class="cls-54" points="1092 1900.32 1132.64 1923.79 1281.16 1838.05 1240.52 1814.57 1092 1900.32"/><polygon class="cls-52" points="953.73 1926.07 994.37 1949.54 1234.3 1811.01 1193.69 1787.54 953.73 1926.07"/><polygon class="cls-55" points="472.01 2152.22 472.01 2163.51 652.33 2267.62 652.33 2256.33 472.01 2152.22"/><polygon class="cls-56" points="1329 1865.66 1329 1876.95 652.33 2267.62 652.33 2256.33 1329 1865.66"/><polygon class="cls-44" points="568.27 2074.23 588.58 2084.93 554.89 2104.38 724.77 2198.13 1361.75 1834.51 1352.93 1829.42 1425.25 1787.67 568.27 2074.23"/><polygon class="cls-48" points="568.28 2062.94 607.23 2085.42 613.27 2088.93 653.91 2112.37 660.13 2115.99 700.74 2139.43 707.37 2143.26 748.01 2166.7 748.59 2167.05 1425.27 1776.38 1424.68 1776.03 1384.04 1752.56 1384.01 1752.56 1377.41 1748.77 1336.77 1725.29 1330.58 1721.73 1330.55 1721.73 1289.94 1698.26 1283.9 1694.75 1244.92 1672.27 1046.8 1786.66 1039.82 1790.69 778.58 1941.52 771.6 1945.55 568.28 2062.94"/><polygon class="cls-49" points="707.37 2143.26 748.01 2166.7 890.98 2084.17 850.34 2060.72 707.37 2143.26"/><polygon class="cls-50" points="568.28 2062.94 607.23 2085.42 810.58 1968.03 771.6 1945.55 568.28 2062.94"/><polygon class="cls-51" points="660.13 2115.99 700.74 2139.43 953.72 1993.37 913.08 1969.92 660.13 2115.99"/><polygon class="cls-52" points="613.27 2088.93 653.91 2112.37 815.45 2019.12 774.81 1995.64 613.27 2088.93"/><polygon class="cls-49" points="1159.18 1929.33 897.94 2080.15 857.31 2056.69 1118.54 1905.87 1159.18 1929.33"/><polygon class="cls-53" points="778.58 1941.52 817.55 1964.03 1078.77 1813.2 1039.82 1790.69 778.58 1941.52"/><polygon class="cls-51" points="1221.93 1838.53 960.7 1989.36 920.06 1965.89 1181.29 1815.07 1221.93 1838.53"/><polygon class="cls-52" points="1083.65 1864.27 822.42 2015.1 781.78 1991.64 1043.02 1840.81 1083.65 1864.27"/><polygon class="cls-50" points="1125.51 1901.84 1166.15 1925.31 1424.68 1776.03 1384.04 1752.56 1384.01 1752.56 1125.51 1901.84"/><polygon class="cls-50" points="1046.8 1786.66 1085.75 1809.17 1283.9 1694.75 1244.92 1672.27 1046.8 1786.66"/><polygon class="cls-54" points="1188.25 1811.04 1228.89 1834.51 1377.41 1748.77 1336.77 1725.29 1188.25 1811.04"/><polygon class="cls-52" points="1049.98 1836.79 1090.62 1860.26 1330.55 1721.73 1289.94 1698.26 1049.98 1836.79"/><polygon class="cls-55" points="568.27 2062.95 568.27 2074.23 748.59 2178.34 748.59 2167.05 568.27 2062.95"/><polygon class="cls-56" points="1425.25 1776.38 1425.25 1787.67 748.59 2178.34 748.59 2167.05 1425.25 1776.38"/></g></g><g id="Layer_6" data-name="Layer 6"><g class="cls-3"><path class="cls-5" d="M1631.17,1674.66l-31.11-18.07c-10.16-5.91-16.46-18.46-16.51-36.31l31.1,18.08C1614.7,1656.2,1621,1668.76,1631.17,1674.66Z"/><polygon class="cls-5" points="1614.65 1638.36 1583.55 1620.28 1582.58 1278.49 1613.68 1296.57 1614.65 1638.36"/><path class="cls-57" d="M2323,887l1,341.79c.11,35.92-25.14,79.67-56.4,97.71l-596.16,344.19c-31.25,18-56.68,3.56-56.78-32.36l-1-341.79Z"/><polygon class="cls-5" points="1613.68 1296.57 1582.58 1278.49 2291.92 868.96 2323.03 887.03 1613.68 1296.57"/><path class="cls-5" d="M2273.47,148.35l31.11,18.08c-10.29-6-24.54-5.14-40.27,3.94l-31.11-18.08C2248.93,143.21,2263.18,142.37,2273.47,148.35Z"/><polygon class="cls-58" points="2321.32 285.11 2323.03 887.03 1613.68 1296.57 1611.98 694.65 2321.32 285.11"/><polygon class="cls-59" points="1611.98 694.65 1580.87 676.57 2290.21 267.03 2321.32 285.11 1611.98 694.65"/><polygon class="cls-59" points="1613.68 1296.57 1582.58 1278.49 1580.87 676.57 1611.98 694.65 1613.68 1296.57"/><polygon class="cls-5" points="1611.98 694.65 1580.87 676.57 1580.64 594.19 1611.74 612.26 1611.98 694.65"/><polygon class="cls-5" points="1668.15 514.56 1637.05 496.49 2233.2 152.29 2264.31 170.37 1668.15 514.56"/><path class="cls-5" d="M1611.74,612.27l-31.1-18.08c-.1-35.91,25.16-79.66,56.41-97.7l31.1,18.07C1636.9,532.61,1611.64,576.36,1611.74,612.27Z"/><path class="cls-57" d="M2264.31,170.37c31.26-18.05,56.67-3.55,56.78,32.36l.23,82.38L1612,694.65l-.24-82.38c-.1-35.91,25.16-79.66,56.41-97.71Z"/></g><ellipse class="cls-31" cx="2184.1" cy="268.62" rx="20.4" ry="11.78" transform="translate(848.39 2017.42) rotate(-59.64)"/><ellipse class="cls-31" cx="2224.39" cy="245.36" rx="20.4" ry="11.78" transform="translate(888.38 2040.68) rotate(-59.64)"/><ellipse class="cls-31" cx="2264.67" cy="222.1" rx="20.4" ry="11.78" transform="translate(928.38 2063.94) rotate(-59.64)"/><text class="cls-60" transform="matrix(0.87, -0.5, 0, 1, 1650.59, 637.14)">Square Footage</text><path class="cls-31" d="M2232.81,532.75,1696.93,842.14c-16.12,9.31-29.18-.57-29.18-22.06V794c0-21.49,13.06-46.45,29.18-55.76l535.88-309.39c16.12-9.31,29.19.57,29.19,22.06V477C2262,498.48,2248.93,523.45,2232.81,532.75Z"/><text class="cls-61" transform="matrix(0.87, -0.5, 0, 1, 1692.66, 723.71)">Length (a)</text><text class="cls-62" transform="matrix(0.87, -0.5, 0, 1, 2061.29, 609.86)">20 ft</text><path class="cls-31" d="M2232.81,715.32l-535.88,309.4c-16.12,9.3-29.18-.58-29.18-22.07V976.56c0-21.49,13.06-46.45,29.18-55.76l535.88-309.39c16.12-9.31,29.19.57,29.19,22.06v26.09C2262,681.05,2248.93,706,2232.81,715.32Z"/><text class="cls-61" transform="matrix(0.87, -0.5, 0, 1, 1692.66, 906.28)">Width (a)</text><text class="cls-62" transform="matrix(0.87, -0.5, 0, 1, 2061.29, 791.35)">15 ft</text><path class="cls-57" d="M2085.63,976.81l-241.52,139.45c-18.83,10.87-34.1-.67-34.1-25.78h0c0-25.11,15.27-54.28,34.1-65.15l241.52-139.44c18.83-10.87,34.1.67,34.1,25.78h0C2119.73,936.77,2104.46,965.94,2085.63,976.81Z"/><text class="cls-60" transform="matrix(0.87, -0.5, 0, 1, 1872.54, 1067.21)">Calculate</text><text class="cls-63" transform="matrix(0.87, -0.5, 0, 1, 1689.49, 1318)">Result :</text><text class="cls-64" transform="matrix(0.87, -0.5, 0, 1, 1723.94, 1492.26)">300 sq ft</text><path class="cls-65" d="M2230.33,1515.65l47.83,27.83a6.71,6.71,0,0,0,7.16-.26l23.83-16.35a6.69,6.69,0,0,0-.23-11.19l-66.88-42a6.68,6.68,0,0,0-7.87.55l-22.9,19.25a6.7,6.7,0,0,0,.77,10.82Z"/><path class="cls-66" d="M2455,1551.25l-21.56,41A888,888,0,0,1,2323.5,1566l-9.18,33.63s58.77,42.83,109.38,59.39,78.77-68.08,78.77-68.08Z"/><path class="cls-66" d="M2323.5,1566l-7.65-36.15a16,16,0,0,0-8-10.78l-26.26-14.27a4.24,4.24,0,0,0-6.07,2.52c-1.36,4.56-.47,11.67,14.2,17l-3,13.21-24.19-3-32.14-18.87s-14.91,9.29,11.84,39.09,72.15,44.92,72.15,44.92Z"/><path class="cls-44" d="M2463.8,2282.58c91.59-52.79,239.88-52.79,331.33,0s91.38,138.43,0,191.16c-91.45,52.89-239.74,52.89-331.33,0C2372.42,2421,2372.42,2335.5,2463.8,2282.58Z"/><path class="cls-66" d="M2783.32,1472.86s7.06,34.15-1.25,45.55-30,9.91-50.51,4.36-34.17-35.26-34.17-35.26l23.55-27.86Z"/><path class="cls-59" d="M2731.11,1303.12c43.57-3.12,57.3,34.22,57.93,72.45s-2.3,71.82-1.53,94.61-77.83,24.47-78.52-3c-.53-20.7,2.58-32.73-4.19-75C2698.67,1354.15,2691.51,1306,2731.11,1303.12Z"/><path class="cls-66" d="M2611.08,1210.42l79.32,35.25,34.44,76.39L2686.35,1368l-45.37,6.34h-54.27l-7.38-24.8s5-44.24-12.72-79.67c-3.48-4.92,0-23.61,0-23.61Z"/><path class="cls-66" d="M2517.55,1168.9c1-7.31,8.8-30.45,21.58-47.28,4.59-3.36,19.65,5.1,19.65,5.1l36.33,55.29-5.07,70.78s-22.92,21-33.75,20.08c-18.58-1.61-36-53.21-36.63-63.14s2.76-20.41,1.59-24.92S2516.65,1176.19,2517.55,1168.9Z"/><path class="cls-67" d="M2648.49,1091.14c68.94,20.7,61.86,78.1,61.86,78.1l4.56,79.65s-26.43,39.94-47.17,41.54c-76.91,5.87-87.6-32.45-87.6-32.45s.45-25-19.38-39.55c-10.65-7.91-24.09,3.92-24.09,3.92s-13.89-56.89,0-95.2C2539.82,1118.46,2564.33,1065.86,2648.49,1091.14Z"/><path class="cls-68" d="M2670.27,2273.84c19-5.5,23.7,5.81,52.55,7.52,11.47.56,62.47,36.7,64.45,41.8,2.88,15.86,14.32,41.77,8.94,52.07s-35.53,9.38-46.89-2.64c-41.91-44.26-50.58-32.41-92.5-59.32C2640.2,2300.61,2651.27,2279.19,2670.27,2273.84Z"/><path class="cls-68" d="M2577.78,2384.64c21.08-4.69,87,19.47,87,19.47s8.18,42.41-3.42,50.11c-20.71,13.69-131.44-11.72-159-25.48-28.5-14.25-22.86-39.89-12.64-49.4C2495.53,2373.75,2536.49,2391,2577.78,2384.64Z"/><path class="cls-65" d="M2761.17,1731.92c11.84,142.61-32.41,229.2-19.54,298,55.13,102.71,23.47,188.12,48.52,293-4.26,33.22-81.16,3.39-73.29-36.91,10.08-57.42-28.47-131.5-51.36-219.71-30-89.06-29.35-111.62-84.61-280.7C2581.73,1761.09,2751.57,1723.62,2761.17,1731.92Z"/><path class="cls-69" d="M2636.57,1656l87.79-40s36.81,76.32,36.81,121.33c0,67.75-109.9,98.69-109.9,98.69s-3.21,272.6-.77,289.43c52.2,103.64,14.6,174.24,14.25,278.59-45.91,23.68-87-19.47-87-19.47s37.91-101.78-10.33-259.12c-11-26.05-89.31-267.38-65-466C2558.39,1661.6,2636.57,1656,2636.57,1656Z"/><path class="cls-7" d="M2704.8,1584.34s15.9,22.82,19.56,31.73c-143.77,128-221.89,43.44-221.89,43.44l3.1-35.94Z"/><path class="cls-70" d="M2579.33,1349.51s31.62,14.76,79.09-1.55,47.43-41.14,47.43-41.14l29.49,6.35s44.79-31.07,26.89,79.58c-9.73,60-57.43,191.59-57.43,191.59s-87.49,111.46-199.23,39.23c7-43.15,3.66-89.42-1.46-103.81,0,0-42.54-37.19-35.55-72.77C2476.75,1405.26,2579.33,1349.51,2579.33,1349.51Z"/><path class="cls-59" d="M2479,1476.32c15.42-35.4,38.67-82.71,74.26-65,26.42,13.25,28.91,68.55,8.69,101s-46.33,67.64-57.93,87.25-72.24-16.69-58-40.07C2456.84,1541.85,2461.84,1515.55,2479,1476.32Z"/><path class="cls-7" d="M2698.76,1162.66c15.45,4.18,24.25,21.43,19.59,38.34s-20.94,27.37-36.39,23.14-24.21-21.46-19.58-38.41S2683.35,1158.45,2698.76,1162.66Z"/><path class="cls-67" d="M2690.4,1187.21c13-13.89,31.8-4.34,31.8-4.34s65.07,40.55,50.28,101.17S2718,1401.15,2718,1401.15s-44.28-53-49.53-88,8.55-33.9,9.45-95.94C2678,1211.52,2677.38,1201,2690.4,1187.21Z"/></g></g></svg>