<svg id="Layer_1" data-name="Layer 1" xmlns="http://www.w3.org/2000/svg" xmlns:xlink="http://www.w3.org/1999/xlink" viewBox="0 0 1917.3 1080"><defs><style>.cls-1,.cls-9{fill:none;}.cls-2{fill:#a1d4f1;}.cls-3{fill:#8dc6db;}.cls-4{fill:#e3e3e3;}.cls-5{fill:#999;}.cls-6{fill:#d1d1d1;}.cls-7{fill:#008db7;}.cls-8{fill:#00baf0;}.cls-9{stroke:#008db7;stroke-linecap:round;stroke-linejoin:round;}.cls-10{fill:#bf6d00;}.cls-11{fill:#ff9a00;}.cls-12{clip-path:url(#clip-path);}.cls-13{fill:#e08205;}.cls-14{fill:#ca8800;}.cls-15{fill:#371b8e;}.cls-16{fill:#592bc2;}.cls-17{fill:#5f38d6;}.cls-18,.cls-21{fill:#fff;}.cls-18{stroke:#000;stroke-miterlimit:10;stroke-width:1.41px;}.cls-19{fill:#070c14;}.cls-20{fill:#0e1827;}.cls-22{fill:#96185a;}.cls-23{fill:#cd206b;}.cls-24{fill:#2e1984;}</style><clipPath id="clip-path" transform="translate(-2.7)"><path class="cls-1" d="M1089.72,577.18l-6.85,350.75c-.76,6.07,12,9.42,19.41,5.12L1409.46,755.7c4.45-2.57,4.45-6.73,0-9.3L1109.13,573C1102.23,569,1090.42,571.56,1089.72,577.18ZM1317.3,748.86c2.19,1.26,2.19,3.31,0,4.57l-151,87.16c-3.66,2.11-9.91.47-9.54-2.52l3.37-172.37c.34-2.77,6.15-4,9.54-2.06Z"/></clipPath></defs><title>draft2 - square footage calculator</title><rect class="cls-2" width="1917.3" height="1080"/><path class="cls-3" d="M2.7,633.09S352.31,520.64,788.31,787.36c0,0,211.23,160.49,508.5,116.75s572-28.63,623.19,7.56V1080H2.7Z" transform="translate(-2.7)"/><path class="cls-3" d="M1920,416.49S1294.74,448,1004.38,175.11c0,0-165.15-141.94-671.47-175.11H1920Z" transform="translate(-2.7)"/><path class="cls-4" d="M1329,467.62,1089,329c-6.28-3.63-16.48-3.63-22.76,0L657.56,565c-6.29,3.63-6.29,9.51,0,13.14l313,180.71c6.29,3.63,16.48,3.63,22.77,0L1325.57,567C1325.57,527.28,1329,507.32,1329,467.62Z" transform="translate(-2.7)"/><path class="cls-5" d="M1268.75,518.82,1073.24,405.93c-2.16-1.24-1.88-3.43.6-4.86h0c2.49-1.44,6.28-1.6,8.43-.35L1277.79,513.6c2.15,1.24,1.88,3.43-.61,4.87h0C1274.7,519.9,1270.9,520.06,1268.75,518.82Z" transform="translate(-2.7)"/><path class="cls-5" d="M1245.23,560,1001.86,419.51c-2.15-1.24-1.88-3.43.61-4.87h0c2.48-1.43,6.28-1.59,8.43-.34l243.37,140.5c2.15,1.25,1.88,3.44-.61,4.87h0C1251.18,561.11,1247.38,561.26,1245.23,560Z" transform="translate(-2.7)"/><path class="cls-5" d="M1173.86,573.6,978.35,460.72c-2.16-1.24-1.88-3.43.6-4.87h0c2.49-1.43,6.28-1.59,8.43-.35L1182.9,568.38c2.15,1.25,1.88,3.44-.61,4.87h0C1179.81,574.69,1176,574.84,1173.86,573.6Z" transform="translate(-2.7)"/><path class="cls-5" d="M1150.34,614.81,907,474.3c-2.15-1.24-1.88-3.44.61-4.87h0c2.48-1.44,6.28-1.59,8.43-.35l243.37,140.51c2.15,1.24,1.88,3.43-.61,4.87h0C1156.29,615.89,1152.49,616.05,1150.34,614.81Z" transform="translate(-2.7)"/><path class="cls-5" d="M1079,628.38,883.46,515.5c-2.16-1.24-1.88-3.43.6-4.86h0c2.49-1.44,6.28-1.6,8.43-.35L1088,623.17c2.15,1.24,1.88,3.43-.61,4.87h0C1084.92,629.47,1081.12,629.63,1079,628.38Z" transform="translate(-2.7)"/><path class="cls-5" d="M984.08,683.17,788.57,570.29c-2.16-1.24-1.88-3.43.6-4.87h0c2.49-1.43,6.28-1.59,8.43-.35L993.12,678c2.15,1.24,1.88,3.44-.61,4.87h0C990,684.25,986.23,684.41,984.08,683.17Z" transform="translate(-2.7)"/><path class="cls-5" d="M1055.45,669.59,812.08,529.08c-2.15-1.24-1.88-3.43.61-4.87h0c2.48-1.43,6.28-1.59,8.43-.35l243.37,140.51c2.15,1.25,1.88,3.44-.61,4.87h0C1061.4,670.68,1057.6,670.83,1055.45,669.59Z" transform="translate(-2.7)"/><path class="cls-6" d="M1329,467.62l-72.54,41.61c-8.44,4.87-8.44,12.78,0,17.65l69.1,40.1C1325.57,533.39,1329,501.21,1329,467.62Z" transform="translate(-2.7)"/><path class="cls-7" d="M1108.89,484.14c44.19-43.93,33.76-101.16-31.4-138.78-67.59-39-171.7-44.06-248.77-15.16-8.39-4.26-21.17-4.09-29.18.54L776,344.33H762.23V356.4a6.6,6.6,0,0,0,0,2.08h0c.4,2.8,2.45,5.54,6.17,7.68l273.07,157.66c8.34,4.82,21.86,4.82,30.2,0l31.15-18c4.83-2.79,6.83-6.57,6.07-10.2ZM1066,449.85c-2.63,4.72-12.87,6.52-18.54,3.25L890.89,362.7c-5.67-3.27-2.56-9.18,5.62-10.7,49-9.1,102.61-3.43,139,17.59S1081.75,421.55,1066,449.85Z" transform="translate(-2.7)"/><path class="cls-8" d="M1103.75,476.72c50.06-44.49,41.32-104.6-26.26-143.62S905.79,289,828.72,317.94c-8.39-4.26-21.17-4.09-29.18.53l-31.14,18c-8.35,4.82-8.35,12.63,0,17.45l273.07,157.65c8.34,4.82,21.86,4.82,30.2,0l31.15-18C1110.83,489,1111.13,481.57,1103.75,476.72Zm-207.24-137c49-9.09,102.61-3.42,139,17.6s46.22,52,30.47,80.26c-2.63,4.72-12.87,6.51-18.54,3.24L890.89,350.44C885.22,347.16,888.33,341.25,896.51,339.73Z" transform="translate(-2.7)"/><line class="cls-9" x1="772.62" y1="357.89" x2="794.97" y2="344.99"/><line class="cls-9" x1="788.82" y1="367.25" x2="819.46" y2="349.56"/><line class="cls-9" x1="805.02" y1="376.6" x2="827.37" y2="363.7"/><line class="cls-9" x1="821.22" y1="385.95" x2="851.87" y2="368.26"/><line class="cls-9" x1="837.43" y1="395.31" x2="859.77" y2="382.41"/><line class="cls-9" x1="853.63" y1="404.66" x2="884.27" y2="386.97"/><line class="cls-9" x1="869.83" y1="414.02" x2="892.18" y2="401.12"/><line class="cls-9" x1="886.03" y1="423.37" x2="916.67" y2="405.68"/><line class="cls-9" x1="902.23" y1="432.72" x2="924.58" y2="419.82"/><line class="cls-9" x1="918.43" y1="442.08" x2="949.08" y2="424.39"/><line class="cls-9" x1="934.64" y1="451.43" x2="956.98" y2="438.53"/><line class="cls-9" x1="950.84" y1="460.79" x2="981.48" y2="443.1"/><line class="cls-9" x1="967.04" y1="470.14" x2="989.39" y2="457.24"/><line class="cls-9" x1="1031.85" y1="507.56" x2="1054.19" y2="494.65"/><line class="cls-9" x1="983.24" y1="479.49" x2="1013.88" y2="461.8"/><line class="cls-9" x1="999.44" y1="488.85" x2="1021.79" y2="475.95"/><line class="cls-9" x1="1015.64" y1="498.2" x2="1046.28" y2="480.51"/><path class="cls-10" d="M1089.72,590.79l-6.85,350.75c-.76,6.07,12,9.42,19.41,5.12l307.18-177.35c4.45-2.57,7.67-19.49,0-22.91L1109.13,586.61C1102.23,582.63,1090.42,585.17,1089.72,590.79ZM1317.3,762.47c2.19,1.26,2.19,3.31,0,4.57l-151,87.16c-3.66,2.12-9.91.47-9.54-2.52l3.37-172.37c.34-2.76,6.15-4,9.54-2.06Z" transform="translate(-2.7)"/><path class="cls-11" d="M1089.72,577.18l-6.85,350.75c-.76,6.07,12,9.42,19.41,5.12L1409.46,755.7c4.45-2.57,4.45-6.73,0-9.3L1109.13,573C1102.23,569,1090.42,571.56,1089.72,577.18ZM1317.3,748.86c2.19,1.26,2.19,3.31,0,4.57l-151,87.16c-3.66,2.11-9.91.47-9.54-2.52l3.37-172.37c.34-2.77,6.15-4,9.54-2.06Z" transform="translate(-2.7)"/><line class="cls-9" x1="1141.51" y1="908.84" x2="1117.25" y2="894.83"/><line class="cls-9" x1="1158.14" y1="899.24" x2="1141.22" y2="889.48"/><line class="cls-9" x1="1174.76" y1="889.64" x2="1150.5" y2="875.64"/><line class="cls-9" x1="1191.39" y1="880.04" x2="1174.47" y2="870.28"/><line class="cls-9" x1="1208.01" y1="870.45" x2="1183.75" y2="856.44"/><line class="cls-9" x1="1224.64" y1="860.85" x2="1207.72" y2="851.08"/><line class="cls-9" x1="1241.26" y1="851.25" x2="1217" y2="837.24"/><line class="cls-9" x1="1257.89" y1="841.65" x2="1240.97" y2="831.88"/><line class="cls-9" x1="1274.51" y1="832.05" x2="1250.25" y2="818.05"/><line class="cls-9" x1="1291.14" y1="822.45" x2="1274.22" y2="812.69"/><line class="cls-9" x1="1307.76" y1="812.85" x2="1283.5" y2="798.85"/><line class="cls-9" x1="1324.39" y1="803.26" x2="1307.47" y2="793.49"/><line class="cls-9" x1="1341.01" y1="793.66" x2="1316.75" y2="779.65"/><line class="cls-9" x1="1357.64" y1="784.06" x2="1340.72" y2="774.29"/><line class="cls-9" x1="1374.26" y1="774.46" x2="1350" y2="760.45"/><line class="cls-9" x1="1390.89" y1="764.86" x2="1373.97" y2="755.1"/><line class="cls-9" x1="1124.89" y1="918.44" x2="1107.97" y2="908.67"/><g class="cls-12"><line class="cls-9" x1="1378.63" y1="730.15" x2="1354.37" y2="744.16"/><line class="cls-9" x1="1362" y1="720.56" x2="1345.09" y2="730.32"/><line class="cls-9" x1="1345.38" y1="710.96" x2="1321.12" y2="724.96"/><line class="cls-9" x1="1328.75" y1="701.36" x2="1311.84" y2="711.13"/><line class="cls-9" x1="1312.13" y1="691.76" x2="1287.87" y2="705.77"/><line class="cls-9" x1="1295.5" y1="682.16" x2="1278.59" y2="691.93"/><line class="cls-9" x1="1278.88" y1="672.56" x2="1254.62" y2="686.57"/><line class="cls-9" x1="1262.25" y1="662.97" x2="1245.34" y2="672.73"/><line class="cls-9" x1="1245.63" y1="653.37" x2="1221.37" y2="667.37"/><line class="cls-9" x1="1229" y1="643.77" x2="1212.09" y2="653.53"/><line class="cls-9" x1="1212.38" y1="634.17" x2="1188.12" y2="648.18"/><line class="cls-9" x1="1195.75" y1="624.57" x2="1178.84" y2="634.34"/><line class="cls-9" x1="1179.13" y1="614.97" x2="1154.87" y2="628.98"/><line class="cls-9" x1="1162.5" y1="605.37" x2="1145.59" y2="615.14"/><line class="cls-9" x1="1145.88" y1="595.78" x2="1121.62" y2="609.78"/><line class="cls-9" x1="1129.25" y1="586.18" x2="1112.34" y2="595.94"/><line class="cls-9" x1="1395.25" y1="739.75" x2="1378.34" y2="749.52"/></g><path class="cls-10" d="M768.49,313.89C812,339,817.63,375.24,817.63,393.68c0,11.75-5.27,20.44-12.2,26.79l9.57-5.53c12.22-6,25.89-17,25.89-35.93,0-18.45-5.68-54.71-49.13-79.8-15.41-8.89-26.37-6.68-33.79-1.53h0l-20.29,12.91h0C745,306.84,755,306.11,768.49,313.89Z" transform="translate(-2.7)"/><path class="cls-10" d="M769.41,401.1a248.75,248.75,0,0,1-24.95,11.42v4.15A159.36,159.36,0,0,0,769.41,401.1Z" transform="translate(-2.7)"/><polygon class="cls-13" points="840.5 448.6 793.51 421.47 770.25 436.15 817.24 463.28 840.5 448.6"/><path class="cls-14" d="M721.19,427.19l23.27-14.67s31.11-13.85,43.29-22.44-2.52,28.15-2.52,28.15Z" transform="translate(-2.7)"/><path class="cls-11" d="M745.92,356.89l-24.11-27.4s12.28-35.46,46.68-15.6C812,339,817.63,375.24,817.63,393.68c0,34.22-44.69,42.47-44.69,42.47l47,27.13v29.25l-98.74-57v-8.34s65.27-24.56,65.27-51.51c0-5.32-1.08-23.85-18-33.6C754.67,334.1,745.92,356.89,745.92,356.89Z" transform="translate(-2.7)"/><polygon class="cls-10" points="817.24 463.28 840.5 448.6 840.5 477.86 817.24 492.53 817.24 463.28"/><path class="cls-15" d="M1223.75,193.07,1206.31,185c-.64-.32-1.28-.63-2-.89h0c-8.88-3.58-19.73-1.68-29.13,3.75a40.63,40.63,0,0,0-10.48,8.5l43.14-82.92-41.19,23.78-34.44,67.24c-15.27,32.8-23.08,51.05-23.08,80.78,0,15.57,5.93,26,15.72,30.56l21.39,9.59-3.12-7.42c7.39-1,15.64-4,24.42-9.06,26.46-15.27,54.33-48.79,54.33-88.76,0-8.88-1.36-16-3.69-21.51Zm-57.76,85c-13,7.48-22.19,1.95-22.19-12.81,0-15.17,9.94-32,22.19-39.06,12.61-7.28,22.55-1.94,22.55,13.23C1188.54,254.17,1179,270.57,1166,278.05Z" transform="translate(-2.7)"/><path class="cls-16" d="M1184.67,205.3a40.53,40.53,0,0,1,10.48-8.51c20.06-11.59,46.69-7.07,46.69,32.29,0,40-27.87,73.49-54.33,88.77-32.84,19-58.41,8.71-58.41-23.68,0-29.73,7.81-48,23.09-80.78l34.44-67.24,41.19-23.78Zm1.25,81.69c13-7.48,22.54-23.88,22.54-38.64,0-15.17-9.94-20.5-22.54-13.23-12.25,7.08-22.19,23.89-22.19,39.06C1163.73,288.94,1173,294.47,1185.92,287Z" transform="translate(-2.7)"/><polygon class="cls-17" points="1205.2 113.43 1225.12 122.37 1183.93 146.15 1164.01 137.21 1205.2 113.43"/><path class="cls-18" d="M740.72,204.57" transform="translate(-2.7)"/><path class="cls-19" d="M526.92,696.85l1.38,27.91c.07,2.55,1.64,5,4.81,6.77L743.17,851.24c7.1,4,19.46,3.46,27.6-1.3l280.77-164.22c5.63-3.3,7.77-7.73,6.21-11.48l-1-24.48-39.11-7.65L1007,643.3,843.37,550.06c-7.1-4-19.46-3.46-27.6,1.3l-239.29,140Z" transform="translate(-2.7)"/><polygon class="cls-19" points="524.22 696.85 524.22 696.85 524.22 696.85 524.22 696.85"/><path class="cls-19" d="M741.79,823.32,531.72,703.61c-3-1.73-4.61-4-4.79-6.48l1.37,27.63c.07,2.55,1.64,5,4.81,6.77L743.17,851.24c3.69,2.1,8.81,2.94,14,2.61l1.32-28.2C752.41,826.53,746.12,825.79,741.79,823.32Z" transform="translate(-2.7)"/><path class="cls-20" d="M842,522.15l210.07,119.71c7.1,4,6.25,11.18-1.89,15.94L769.38,822c-8.14,4.77-20.49,5.35-27.59,1.3L531.72,703.61c-7.1-4-6.25-11.18,1.89-15.94L814.39,523.45C822.53,518.68,834.89,518.1,842,522.15Z" transform="translate(-2.7)"/><path class="cls-21" d="M820.43,548.37l176.9,100.81c4.54,2.59,4,7.2-1.21,10.25l-18.38,10.75c-5.22,3.05-13.19,3.42-17.74.84L783.1,570.21c-4.54-2.59-4-7.2,1.22-10.25l18.38-10.75C807.91,546.16,815.89,545.78,820.43,548.37Z" transform="translate(-2.7)"/><path class="cls-6" d="M783.1,570.21l2,1.12a12,12,0,0,1,1.31-.89l18.39-10.75c5.21-3.05,13.19-3.42,17.73-.83l174.93,99.68c3.94-3,4-7-.1-9.36L820.43,548.37c-4.54-2.59-12.52-2.21-17.73.84L784.32,560C779.11,563,778.56,567.62,783.1,570.21Z" transform="translate(-2.7)"/><path class="cls-21" d="M775.27,606.2l119,67.81c3.06,1.74,2.69,4.85-.82,6.9l-12.36,7.23c-3.51,2.05-8.88,2.3-11.93.56l-119-67.81c-3-1.74-2.68-4.84.82-6.89l12.37-7.24C766.85,604.71,772.22,604.46,775.27,606.2Z" transform="translate(-2.7)"/><path class="cls-6" d="M750.16,620.89l1.33.75a10.35,10.35,0,0,1,.88-.59l12.36-7.23c3.51-2.05,8.88-2.31,11.93-.57l117.67,67.06c2.66-2,2.71-4.72-.06-6.3l-119-67.81c-3-1.74-8.42-1.49-11.92.56L751,614C747.48,616.05,747.11,619.15,750.16,620.89Z" transform="translate(-2.7)"/><path class="cls-21" d="M732,628.51l119,67.81c3.05,1.74,2.68,4.84-.82,6.89l-12.37,7.24c-3.5,2-8.87,2.3-11.92.56l-119-67.81c-3.06-1.75-2.69-4.85.82-6.9l12.36-7.23C723.62,627,729,626.77,732,628.51Z" transform="translate(-2.7)"/><path class="cls-6" d="M706.93,643.2l1.32.75a7.67,7.67,0,0,1,.89-.6l12.36-7.23c3.51-2,8.87-2.3,11.93-.56L851.1,702.62c2.65-2,2.71-4.72-.06-6.3L732,628.51c-3.06-1.74-8.42-1.49-11.93.56l-12.36,7.23C704.24,638.35,703.87,641.45,706.93,643.2Z" transform="translate(-2.7)"/><path class="cls-21" d="M690.89,652.16l119,67.81c3.06,1.74,2.69,4.84-.81,6.89L796.7,734.1c-3.5,2-8.87,2.3-11.93.56l-119-67.81c-3.06-1.75-2.69-4.85.82-6.9L679,652.72C682.47,650.67,687.83,650.42,690.89,652.16Z" transform="translate(-2.7)"/><path class="cls-6" d="M665.78,666.85l1.32.75a8.47,8.47,0,0,1,.88-.6l12.37-7.23c3.5-2,8.87-2.3,11.93-.56L810,726.27c2.65-2,2.71-4.72-.07-6.3l-119-67.81c-3.06-1.74-8.42-1.49-11.93.56L666.6,660C663.09,662,662.72,665.1,665.78,666.85Z" transform="translate(-2.7)"/><path class="cls-15" d="M734.2,743.9a3,3,0,0,1,.09.51,2.92,2.92,0,0,1,.09.5,4.5,4.5,0,0,1,.08.51,3,3,0,0,1,.09.51,4.5,4.5,0,0,1,.08.51,2.75,2.75,0,0,1,.09.5,27.1,27.1,0,0,0,.17,1,3,3,0,0,1,.09.51,4,4,0,0,1,.08.5,3,3,0,0,1,.09.51,4.5,4.5,0,0,1,.08.51,3,3,0,0,1,.09.51,2.74,2.74,0,0,1,.08.5,3,3,0,0,1,.09.51,3,3,0,0,1,.09.51,4.5,4.5,0,0,1,.08.51,2.75,2.75,0,0,1,.09.5,4.5,4.5,0,0,1,.08.51,3,3,0,0,1,.09.51c.57,1.72-.29,3.57-2.6,4.89l-26.39,15a14.76,14.76,0,0,1-13.33-.07l-84.3-49.31a5,5,0,0,1-2.64-3.31,27.1,27.1,0,0,0-.17-1,3.1,3.1,0,0,1-.09-.5,4.5,4.5,0,0,1-.08-.51,3,3,0,0,1-.09-.51,4.5,4.5,0,0,1-.08-.51,2.92,2.92,0,0,1-.09-.5,27.1,27.1,0,0,0-.17-1,3,3,0,0,1-.09-.51,4.33,4.33,0,0,1-.08-.5,3,3,0,0,1-.09-.51,4.5,4.5,0,0,1-.08-.51,3,3,0,0,1-.09-.51,2.74,2.74,0,0,1-.08-.5,2348592263632.39,2348592263632.39,0,0,1-.18-1,4.5,4.5,0,0,1-.08-.51,2.75,2.75,0,0,1-.09-.5,4.5,4.5,0,0,1-.08-.51c-.58-1.73.29-3.58,2.59-4.89l26.39-15a14.8,14.8,0,0,1,13.33.08l84.3,49.3A4.93,4.93,0,0,1,734.2,743.9Z" transform="translate(-2.7)"/><path class="cls-16" d="M731.52,748.28l-26.39,15a14.8,14.8,0,0,1-13.33-.08l-84.3-49.3c-3.65-2.14-3.63-5.6,0-7.7l26.39-15a14.8,14.8,0,0,1,13.33.08l84.3,49.3C735.22,742.72,735.2,746.19,731.52,748.28Z" transform="translate(-2.7)"/><ellipse class="cls-22" cx="592.8" cy="501.11" rx="139.19" ry="99.74"/><ellipse class="cls-23" cx="589.59" cy="495.71" rx="135.97" ry="94.35"/><ellipse class="cls-11" cx="589.59" cy="495.71" rx="91.68" ry="63.61"/><polygon class="cls-24" points="1481.36 540.68 1304.69 443.47 1151.03 552.47 1321.28 650.69 1481.36 540.68"/><polygon class="cls-16" points="1481.48 534.21 1304.82 437 1151.15 546 1321.4 644.22 1481.48 534.21"/><polygon class="cls-24" points="1481.48 534.21 1481.34 540.67 1475.14 538.57 1481.48 534.21"/><polygon class="cls-24" points="1151.15 546 1151.01 552.47 1156.92 554.46 1157.24 549.51 1151.15 546"/><ellipse class="cls-11" cx="1315.93" cy="536.99" rx="72.45" ry="47.61"/></svg>